<?xml version="1.0" encoding="utf-8"?>
<!-- Generator: Adobe Illustrator 19.0.0, SVG Export Plug-In . SVG Version: 6.00 Build 0)  -->
<svg version="1.1" id="Layer_1" xmlns="http://www.w3.org/2000/svg" xmlns:xlink="http://www.w3.org/1999/xlink" x="0px" y="0px"
	 viewBox="-20 35.5 246.8 218.5" style="enable-background:new -20 35.5 246.8 218.5;" xml:space="preserve">
<style type="text/css">
	.st0{fill:none;stroke:#000000;stroke-miterlimit:10;}
	.st1{fill:none;stroke:#000000;}
	.st2{fill:none;stroke:#000000;stroke-linecap:round;stroke-linejoin:round;}
</style>
<ellipse class="st0" cx="140.3" cy="58.3" rx="3.5" ry="3.5"/>
<ellipse class="st0" cx="168.6" cy="58.3" rx="3.5" ry="3.5"/>
<ellipse class="st0" cx="182.8" cy="58.3" rx="3.5" ry="3.5"/>
<ellipse class="st0" cx="154.4" cy="58.3" rx="3.5" ry="3.5"/>
<ellipse class="st0" cx="27.3" cy="127.2" rx="2.7" ry="2.7"/>
<ellipse class="st0" cx="27.3" cy="105.6" rx="2.7" ry="2.7"/>
<ellipse class="st0" cx="41.7" cy="127.2" rx="2.7" ry="2.7"/>
<ellipse class="st0" cx="41.7" cy="105.6" rx="2.7" ry="2.7"/>
<ellipse class="st0" cx="56.1" cy="127.2" rx="2.7" ry="2.7"/>
<ellipse class="st0" cx="56.1" cy="105.6" rx="2.7" ry="2.7"/>
<ellipse class="st0" cx="70.5" cy="127.2" rx="2.7" ry="2.7"/>
<ellipse class="st0" cx="70.5" cy="105.6" rx="2.7" ry="2.7"/>
<ellipse class="st0" cx="84.9" cy="127.2" rx="2.7" ry="2.7"/>
<ellipse class="st0" cx="84.9" cy="105.6" rx="2.7" ry="2.7"/>
<ellipse class="st0" cx="99.3" cy="127.2" rx="2.7" ry="2.7"/>
<ellipse class="st0" cx="99.3" cy="105.6" rx="2.7" ry="2.7"/>
<ellipse class="st0" cx="113.7" cy="127.2" rx="2.7" ry="2.7"/>
<ellipse class="st0" cx="113.7" cy="105.6" rx="2.7" ry="2.7"/>
<ellipse class="st0" cx="128.1" cy="127.2" rx="2.7" ry="2.7"/>
<ellipse class="st0" cx="128.1" cy="105.6" rx="2.7" ry="2.7"/>
<ellipse class="st0" cx="12.9" cy="127.2" rx="2.7" ry="2.7"/>
<ellipse class="st0" cx="12.9" cy="105.6" rx="2.7" ry="2.7"/>
<ellipse class="st0" cx="-1.5" cy="127.2" rx="2.7" ry="2.7"/>
<ellipse class="st0" cx="-1.5" cy="105.6" rx="2.7" ry="2.7"/>
<ellipse class="st0" cx="11.6" cy="70" rx="3.2" ry="3.2"/>
<ellipse class="st0" cx="29.6" cy="62.8" rx="3.2" ry="3.2"/>
<ellipse class="st0" cx="8" cy="77.2" rx="3.6" ry="3.6"/>
<ellipse class="st0" cx="36.8" cy="77.2" rx="3.6" ry="3.6"/>
<ellipse class="st0" cx="18.8" cy="91.6" rx="2.5" ry="2.5"/>
<ellipse class="st0" cx="26" cy="91.6" rx="2.5" ry="2.5"/>
<ellipse class="st0" cx="65.6" cy="70" rx="3.2" ry="3.2"/>
<ellipse class="st0" cx="83.6" cy="62.8" rx="3.2" ry="3.2"/>
<ellipse class="st0" cx="62" cy="77.2" rx="3.6" ry="3.6"/>
<ellipse class="st0" cx="90.8" cy="77.2" rx="3.6" ry="3.6"/>
<ellipse class="st0" cx="72.8" cy="91.6" rx="2.5" ry="2.5"/>
<ellipse class="st0" cx="80" cy="91.6" rx="2.5" ry="2.5"/>
<ellipse class="st0" cx="11.6" cy="151.1" rx="3.2" ry="3.2"/>
<ellipse class="st0" cx="29.6" cy="143.9" rx="3.2" ry="3.2"/>
<ellipse class="st0" cx="8" cy="158.3" rx="3.6" ry="3.6"/>
<ellipse class="st0" cx="36.8" cy="158.3" rx="3.6" ry="3.6"/>
<ellipse class="st0" cx="18.8" cy="172.7" rx="2.5" ry="2.5"/>
<ellipse class="st0" cx="26" cy="172.7" rx="2.5" ry="2.5"/>
<ellipse class="st0" cx="65.6" cy="151.1" rx="3.2" ry="3.2"/>
<ellipse class="st0" cx="83.6" cy="143.9" rx="3.2" ry="3.2"/>
<ellipse class="st0" cx="62" cy="158.3" rx="3.6" ry="3.6"/>
<ellipse class="st0" cx="90.8" cy="158.3" rx="3.6" ry="3.6"/>
<ellipse class="st0" cx="72.8" cy="172.7" rx="2.5" ry="2.5"/>
<ellipse class="st0" cx="80" cy="172.7" rx="2.5" ry="2.5"/>
<ellipse class="st0" cx="119.6" cy="151.1" rx="3.2" ry="3.2"/>
<ellipse class="st0" cx="137.6" cy="143.9" rx="3.2" ry="3.2"/>
<ellipse class="st0" cx="116" cy="158.3" rx="3.6" ry="3.6"/>
<ellipse class="st0" cx="144.8" cy="158.3" rx="3.6" ry="3.6"/>
<ellipse class="st0" cx="126.8" cy="172.7" rx="2.5" ry="2.5"/>
<ellipse class="st0" cx="134" cy="172.7" rx="2.5" ry="2.5"/>
<ellipse class="st0" cx="173.6" cy="151.1" rx="3.2" ry="3.2"/>
<ellipse class="st0" cx="191.6" cy="143.9" rx="3.2" ry="3.2"/>
<ellipse class="st0" cx="170" cy="158.3" rx="3.6" ry="3.6"/>
<ellipse class="st0" cx="198.8" cy="158.3" rx="3.6" ry="3.6"/>
<ellipse class="st0" cx="180.8" cy="172.7" rx="2.5" ry="2.5"/>
<ellipse class="st0" cx="188" cy="172.7" rx="2.5" ry="2.5"/>
<ellipse class="st0" cx="11.6" cy="205.1" rx="3.2" ry="3.2"/>
<ellipse class="st0" cx="29.6" cy="197.9" rx="3.2" ry="3.2"/>
<ellipse class="st0" cx="8" cy="212.3" rx="3.6" ry="3.6"/>
<ellipse class="st0" cx="36.8" cy="212.3" rx="3.6" ry="3.6"/>
<ellipse class="st0" cx="18.8" cy="226.7" rx="2.5" ry="2.5"/>
<ellipse class="st0" cx="26" cy="226.7" rx="2.5" ry="2.5"/>
<ellipse class="st0" cx="65.6" cy="205.1" rx="3.2" ry="3.2"/>
<ellipse class="st0" cx="83.6" cy="197.9" rx="3.2" ry="3.2"/>
<ellipse class="st0" cx="62" cy="212.3" rx="3.6" ry="3.6"/>
<ellipse class="st0" cx="90.8" cy="212.3" rx="3.6" ry="3.6"/>
<ellipse class="st0" cx="72.8" cy="226.7" rx="2.5" ry="2.5"/>
<ellipse class="st0" cx="80" cy="226.7" rx="2.5" ry="2.5"/>
<ellipse class="st0" cx="119.6" cy="205.1" rx="3.2" ry="3.2"/>
<ellipse class="st0" cx="137.6" cy="197.9" rx="3.2" ry="3.2"/>
<ellipse class="st0" cx="116" cy="212.3" rx="3.6" ry="3.6"/>
<ellipse class="st0" cx="144.8" cy="212.3" rx="3.6" ry="3.6"/>
<ellipse class="st0" cx="126.8" cy="226.7" rx="2.5" ry="2.5"/>
<ellipse class="st0" cx="134" cy="226.7" rx="2.5" ry="2.5"/>
<ellipse class="st0" cx="173.6" cy="205.1" rx="3.2" ry="3.2"/>
<ellipse class="st0" cx="191.6" cy="197.9" rx="3.2" ry="3.2"/>
<ellipse class="st0" cx="170" cy="212.3" rx="3.6" ry="3.6"/>
<ellipse class="st0" cx="198.8" cy="212.3" rx="3.6" ry="3.6"/>
<ellipse class="st0" cx="180.8" cy="226.7" rx="2.5" ry="2.5"/>
<ellipse class="st0" cx="188" cy="226.7" rx="2.5" ry="2.5"/>
<circle class="st0" cx="168.9" cy="77.2" r="1"/>
<circle class="st0" cx="172.6" cy="77.2" r="1"/>
<circle class="st0" cx="176.3" cy="77.2" r="1"/>
<circle class="st0" cx="180" cy="77.2" r="1"/>
<circle class="st0" cx="134.9" cy="77.2" r="1"/>
<circle class="st0" cx="138.6" cy="77.2" r="1"/>
<circle class="st0" cx="142.3" cy="77.2" r="1"/>
<circle class="st0" cx="145.9" cy="77.2" r="1"/>
<circle class="st1" cx="22.4" cy="77.2" r="5.8"/>
<circle class="st1" cx="76.4" cy="77.2" r="5.8"/>
<circle class="st1" cx="22.4" cy="158.3" r="5.8"/>
<circle class="st1" cx="76.4" cy="158.3" r="5.8"/>
<circle class="st1" cx="130.4" cy="158.3" r="5.8"/>
<circle class="st1" cx="184.4" cy="158.3" r="5.8"/>
<circle class="st1" cx="22.4" cy="212.3" r="5.8"/>
<circle class="st1" cx="76.4" cy="212.3" r="5.8"/>
<circle class="st1" cx="130.4" cy="212.3" r="5.8"/>
<circle class="st1" cx="184.4" cy="212.3" r="5.8"/>
<polyline id="gge998" class="st2" points="-12.8,235.5 -1.5,235.5 -1.5,246.8 208.3,246.8 208.3,235.5 219.6,235.5 219.6,54 
	208.3,54 208.3,42.7 -1.5,42.7 -1.5,54 -12.8,54 -12.8,235.5 "/>
</svg>
