<?xml version="1.0" encoding="utf-8"?>
<!-- Generator: Adobe Illustrator 19.0.0, SVG Export Plug-In . SVG Version: 6.00 Build 0)  -->
<svg version="1.1" id="icon-lock" xmlns="http://www.w3.org/2000/svg" xmlns:xlink="http://www.w3.org/1999/xlink" x="0px" y="0px"
	 viewBox="-12.8 42.7 232.4 204.1" style="enable-background:new -12.8 42.7 232.4 204.1;" xml:space="preserve">
<style type="text/css">
	.st0{fill:#80785F;}
	.st1{fill:#FFFFFF;filter:url(#Adobe_OpacityMaskFilter);}
	.st2{mask:url(#topBoardSolderMask);fill:#0B3B0B;}
	.st3{fill:none;stroke:#DCAA14;stroke-width:1.0236;stroke-linecap:round;}
	.st4{fill:#DCAA14;}
	.st5{fill:#DCAA14;stroke:#DCAA14;stroke-width:3.937;}
	.st6{fill:#FFFFFF;filter:url(#Adobe_OpacityMaskFilter_1_);}
	.st7{mask:url(#topSignalSolderMask);}
	.st8{fill:none;stroke:#00BE00;stroke-width:1.0236;stroke-linecap:round;}
	.st9{fill:#00BE00;}
	.st10{fill:#00BE00;stroke:#00BE00;stroke-width:3.937;}
	.st11{fill:none;stroke:#FFFFFF;stroke-width:0.5906;}
	.st12{display:none;}
	.st13{display:inline;fill:none;stroke:#FFFFFF;stroke-width:0.6;}
	.st14{fill:none;stroke:#FFFFFF;stroke-width:0.6;}
	.st15{fill:none;stroke:#FFFFFF;stroke-width:0.3937;}
	.st16{fill:none;stroke:#FFFFFF;stroke-width:0.5;stroke-linecap:round;}
	.st17{fill:none;stroke:#FFFFFF;stroke-width:0.7874;stroke-linecap:round;}
	.st18{fill:none;stroke:#FFFFFF;stroke-width:0.7874;}
	.st19{fill:#FFFFFF;}
</style>
<path id="boardOutlineReal" class="st0" d="M-1.5,246.8v-11.3l0,0l0,0h-11.3V54h11.3l0,0l0,0V42.7h209.8V54l0,0l0,0h11.3v181.4
	h-11.3l0,0l0,0v11.3H-1.5z"/>
<defs>
	<filter id="Adobe_OpacityMaskFilter" filterUnits="userSpaceOnUse" x="-12.8" y="42.7" width="232.4" height="204.1">
		<feColorMatrix  type="matrix" values="1 0 0 0 0  0 1 0 0 0  0 0 1 0 0  0 0 0 1 0"/>
	</filter>
</defs>
<mask maskUnits="userSpaceOnUse" x="-12.8" y="42.7" width="232.4" height="204.1" id="topBoardSolderMask">
	<path class="st1" d="M-1.5,246.8v-11.3l0,0l0,0h-11.3V54h11.3l0,0l0,0V42.7h209.8V54l0,0l0,0h11.3v181.4h-11.3l0,0l0,0v11.3H-1.5z"
		/>
	<g>
		<ellipse cx="140.3" cy="58.3" rx="3.8" ry="3.8"/>
		<ellipse cx="168.6" cy="58.3" rx="3.8" ry="3.8"/>
		<ellipse cx="182.8" cy="58.3" rx="3.8" ry="3.8"/>
		<ellipse cx="154.4" cy="58.3" rx="3.8" ry="3.8"/>
		<ellipse cx="27.3" cy="127.2" rx="3" ry="3"/>
		<ellipse cx="27.3" cy="105.6" rx="3" ry="3"/>
		<ellipse cx="41.7" cy="127.2" rx="3" ry="3"/>
		<ellipse cx="41.7" cy="105.6" rx="3" ry="3"/>
		<ellipse cx="56.1" cy="127.2" rx="3" ry="3"/>
		<ellipse cx="56.1" cy="105.6" rx="3" ry="3"/>
		<ellipse cx="70.5" cy="127.2" rx="3" ry="3"/>
		<ellipse cx="70.5" cy="105.6" rx="3" ry="3"/>
		<ellipse cx="84.9" cy="127.2" rx="3" ry="3"/>
		<ellipse cx="84.9" cy="105.6" rx="3" ry="3"/>
		<ellipse cx="99.3" cy="127.2" rx="3" ry="3"/>
		<ellipse cx="99.3" cy="105.6" rx="3" ry="3"/>
		<ellipse cx="113.7" cy="127.2" rx="3" ry="3"/>
		<ellipse cx="113.7" cy="105.6" rx="3" ry="3"/>
		<ellipse cx="128.1" cy="127.2" rx="3" ry="3"/>
		<ellipse cx="128.1" cy="105.6" rx="3" ry="3"/>
		<ellipse cx="12.9" cy="127.2" rx="3" ry="3"/>
		<ellipse cx="12.9" cy="105.6" rx="3" ry="3"/>
		<ellipse cx="-1.5" cy="127.2" rx="3" ry="3"/>
		<ellipse cx="-1.5" cy="105.6" rx="3" ry="3"/>
		<ellipse cx="11.6" cy="70" rx="3.5" ry="3.5"/>
		<ellipse cx="29.6" cy="62.8" rx="3.5" ry="3.5"/>
		<ellipse cx="8" cy="77.2" rx="3.9" ry="3.9"/>
		<ellipse cx="36.8" cy="77.2" rx="3.9" ry="3.9"/>
		<ellipse cx="18.8" cy="91.6" rx="2.8" ry="2.8"/>
		<ellipse cx="26" cy="91.6" rx="2.8" ry="2.8"/>
		<ellipse cx="65.6" cy="70" rx="3.5" ry="3.5"/>
		<ellipse cx="83.6" cy="62.8" rx="3.5" ry="3.5"/>
		<ellipse cx="62" cy="77.2" rx="3.9" ry="3.9"/>
		<ellipse cx="90.8" cy="77.2" rx="3.9" ry="3.9"/>
		<ellipse cx="72.8" cy="91.6" rx="2.8" ry="2.8"/>
		<ellipse cx="80" cy="91.6" rx="2.8" ry="2.8"/>
		<ellipse cx="11.6" cy="151.1" rx="3.5" ry="3.5"/>
		<ellipse cx="29.6" cy="143.9" rx="3.5" ry="3.5"/>
		<ellipse cx="8" cy="158.3" rx="3.9" ry="3.9"/>
		<ellipse cx="36.8" cy="158.3" rx="3.9" ry="3.9"/>
		<ellipse cx="18.8" cy="172.7" rx="2.8" ry="2.8"/>
		<ellipse cx="26" cy="172.7" rx="2.8" ry="2.8"/>
		<ellipse cx="65.6" cy="151.1" rx="3.5" ry="3.5"/>
		<ellipse cx="83.6" cy="143.9" rx="3.5" ry="3.5"/>
		<ellipse cx="62" cy="158.3" rx="3.9" ry="3.9"/>
		<ellipse cx="90.8" cy="158.3" rx="3.9" ry="3.9"/>
		<ellipse cx="72.8" cy="172.7" rx="2.8" ry="2.8"/>
		<ellipse cx="80" cy="172.7" rx="2.8" ry="2.8"/>
		<ellipse cx="119.6" cy="151.1" rx="3.5" ry="3.5"/>
		<ellipse cx="137.6" cy="143.9" rx="3.5" ry="3.5"/>
		<ellipse cx="116" cy="158.3" rx="3.9" ry="3.9"/>
		<ellipse cx="144.8" cy="158.3" rx="3.9" ry="3.9"/>
		<ellipse cx="126.8" cy="172.7" rx="2.8" ry="2.8"/>
		<ellipse cx="134" cy="172.7" rx="2.8" ry="2.8"/>
		<ellipse cx="173.6" cy="151.1" rx="3.5" ry="3.5"/>
		<ellipse cx="191.6" cy="143.9" rx="3.5" ry="3.5"/>
		<ellipse cx="170" cy="158.3" rx="3.9" ry="3.9"/>
		<ellipse cx="198.8" cy="158.3" rx="3.9" ry="3.9"/>
		<ellipse cx="180.8" cy="172.7" rx="2.8" ry="2.8"/>
		<ellipse cx="188" cy="172.7" rx="2.8" ry="2.8"/>
		<ellipse cx="11.6" cy="205.1" rx="3.5" ry="3.5"/>
		<ellipse cx="29.6" cy="197.9" rx="3.5" ry="3.5"/>
		<ellipse cx="8" cy="212.3" rx="3.9" ry="3.9"/>
		<ellipse cx="36.8" cy="212.3" rx="3.9" ry="3.9"/>
		<ellipse cx="18.8" cy="226.7" rx="2.8" ry="2.8"/>
		<ellipse cx="26" cy="226.7" rx="2.8" ry="2.8"/>
		<ellipse cx="65.6" cy="205.1" rx="3.5" ry="3.5"/>
		<ellipse cx="83.6" cy="197.9" rx="3.5" ry="3.5"/>
		<ellipse cx="62" cy="212.3" rx="3.9" ry="3.9"/>
		<ellipse cx="90.8" cy="212.3" rx="3.9" ry="3.9"/>
		<ellipse cx="72.8" cy="226.7" rx="2.8" ry="2.8"/>
		<ellipse cx="80" cy="226.7" rx="2.8" ry="2.8"/>
		<ellipse cx="119.6" cy="205.1" rx="3.5" ry="3.5"/>
		<ellipse cx="137.6" cy="197.9" rx="3.5" ry="3.5"/>
		<ellipse cx="116" cy="212.3" rx="3.9" ry="3.9"/>
		<ellipse cx="144.8" cy="212.3" rx="3.9" ry="3.9"/>
		<ellipse cx="126.8" cy="226.7" rx="2.8" ry="2.8"/>
		<ellipse cx="134" cy="226.7" rx="2.8" ry="2.8"/>
		<ellipse cx="173.6" cy="205.1" rx="3.5" ry="3.5"/>
		<ellipse cx="191.6" cy="197.9" rx="3.5" ry="3.5"/>
		<ellipse cx="170" cy="212.3" rx="3.9" ry="3.9"/>
		<ellipse cx="198.8" cy="212.3" rx="3.9" ry="3.9"/>
		<ellipse cx="180.8" cy="226.7" rx="2.8" ry="2.8"/>
		<ellipse cx="188" cy="226.7" rx="2.8" ry="2.8"/>
		<path d="M167.2,75.8c0-0.9,0.8-1.7,1.7-1.7c0.9,0,1.7,0.8,1.7,1.7v2.8c0,0.9-0.8,1.7-1.7,1.7c-0.9,0-1.7-0.8-1.7-1.7V75.8z"/>
		<polygon points="170.9,80.4 170.9,74.1 174.3,74.1 174.3,80.4 		"/>
		<path d="M174.6,75.8c0-0.9,0.8-1.7,1.7-1.7c0.9,0,1.7,0.8,1.7,1.7v2.8c0,0.9-0.8,1.7-1.7,1.7c-0.9,0-1.7-0.8-1.7-1.7V75.8z"/>
		<path d="M178.2,75.8c0-0.9,0.8-1.7,1.7-1.7c0.9,0,1.7,0.8,1.7,1.7v2.8c0,0.9-0.8,1.7-1.7,1.7c-0.9,0-1.7-0.8-1.7-1.7V75.8z"/>
		<path d="M133.2,75.8c0-0.9,0.8-1.7,1.7-1.7c0.9,0,1.7,0.8,1.7,1.7v2.8c0,0.9-0.8,1.7-1.7,1.7c-0.9,0-1.7-0.8-1.7-1.7V75.8z"/>
		<polygon points="136.9,80.4 136.9,74.1 140.3,74.1 140.3,80.4 		"/>
		<path d="M140.5,75.8c0-0.9,0.8-1.7,1.7-1.7s1.7,0.8,1.7,1.7v2.8c0,0.9-0.8,1.7-1.7,1.7s-1.7-0.8-1.7-1.7V75.8z"/>
		<path d="M144.2,75.8c0-0.9,0.8-1.7,1.7-1.7c0.9,0,1.7,0.8,1.7,1.7v2.8c0,0.9-0.8,1.7-1.7,1.7c-0.9,0-1.7-0.8-1.7-1.7V75.8z"/>
	</g>
</mask>
<path id="topBoardSolderReal" class="st2" d="M-1.5,246.8v-11.3l0,0l0,0h-11.3V54h11.3l0,0l0,0V42.7h209.8V54l0,0l0,0h11.3v181.4
	h-11.3l0,0l0,0v11.3H-1.5z"/>
<g id="topSignalReal">
	<polyline id="gge2031_1" class="st3" points="12.9,127.2 17.9,122.2 116.6,122.2 125.2,130.7 151.5,130.7 159.6,122.6 176.7,122.6 
		195.9,141.8 195.9,146.4 193.1,149.2 193.1,160.4 180.8,172.7 	"/>
	<polyline id="gge2030_1" class="st3" points="128.1,127.2 100,99.1 80.2,99.1 72.8,91.6 	"/>
	<polyline id="gge2029_1" class="st3" points="18.8,172.7 25.5,166 35.7,166 54.8,147 80,147 81.2,148.1 89.3,148.1 110.3,127.2 
		113.7,127.2 	"/>
	<polyline id="gge2026_1" class="st3" points="101.3,147.8 95.6,153.5 89.2,153.5 85.7,157 85.7,160.5 80.1,166.2 79.3,166.2 
		72.8,172.7 	"/>
	<polyline id="gge2016_1" class="st3" points="145.9,77.2 151.7,83 169.6,83 	"/>
	<polyline id="gge2013_1" class="st3" points="142.2,77.2 142.2,78.6 152.1,88.5 174.1,88.5 	"/>
	<polyline id="gge2009_1" class="st3" points="134.9,77.2 134.9,79.1 150.1,94.3 184.8,94.3 	"/>
	<polyline id="gge2004_1" class="st3" points="65.6,151.1 90.7,151.1 101.1,140.7 	"/>
	<line id="gge2002_1" class="st3" x1="118.3" y1="109.4" x2="174.7" y2="109.4"/>
	<polyline id="gge2000_1" class="st3" points="165.3,194.2 154.5,205.1 119.6,205.1 	"/>
	<polyline id="gge1996_1" class="st3" points="170.9,124.3 156.4,138.7 120.5,138.7 91.6,167.6 79.7,167.6 76.4,171 76.4,175.8 
		87.7,187.1 87.7,199.6 82.2,205.1 65.6,205.1 	"/>
	<polyline id="gge1993_1" class="st3" points="162.9,124.6 153.2,134.4 109.9,134.4 92,152.3 88.7,152.3 84.1,156.9 84.1,160.1 
		79.3,164.9 51.8,164.9 11.6,205.1 	"/>
	<line id="gge1990_1" class="st3" x1="119.6" y1="151.1" x2="153.4" y2="151.1"/>
	<polyline id="gge1987_1" class="st3" points="11.6,151.1 39.2,123.4 114.9,123.4 124,132.6 151.7,132.6 	"/>
	<polyline id="gge1984_1" class="st3" points="11.6,70 42.9,70 56.9,84 133.5,84 	"/>
	<polyline id="gge1981_1" class="st3" points="65.6,70 122.2,70 135.6,83.4 135.6,95.1 	"/>
	<line id="gge1971_1" class="st3" x1="83.6" y1="143.9" x2="29.6" y2="143.9"/>
	<line id="gge1968_1" class="st3" x1="29.6" y1="197.9" x2="83.6" y2="197.9"/>
	<line id="gge1964_1" class="st3" x1="138.6" y1="77.2" x2="138.6" y2="73.5"/>
	<line id="gge1963_1" class="st3" x1="29.6" y1="62.8" x2="83.6" y2="62.8"/>
	<polyline id="gge1962_1" class="st3" points="80,172.7 83.4,176 134,176 	"/>
	<polyline id="gge1961_1" class="st3" points="137.6,197.9 134,194.3 134,176 	"/>
	<line id="gge1960_1" class="st3" x1="134" y1="176" x2="134" y2="172.7"/>
	<line id="gge1959_1" class="st3" x1="138.6" y1="67.7" x2="138.6" y2="73.5"/>
	<line id="gge1958_1" class="st3" x1="172.6" y1="77.2" x2="172.6" y2="73.5"/>
	<line id="gge1957_1" class="st3" x1="154.4" y1="58.3" x2="154.4" y2="67.7"/>
	<line id="gge1956_1" class="st3" x1="138.6" y1="67.7" x2="154.4" y2="67.7"/>
	<polyline id="gge1955_1" class="st3" points="154.4,67.7 166.7,67.7 172.6,73.5 	"/>
	<line id="gge1952_1" class="st3" x1="137.6" y1="143.9" x2="191.6" y2="143.9"/>
	<polyline id="gge1948_1" class="st3" points="83.6,62.8 88.4,67.7 138.6,67.7 	"/>
	<line id="gge1944_1" class="st3" x1="12.9" y1="105.6" x2="27.3" y2="105.6"/>
	<line id="gge1942_1" class="st3" x1="99.3" y1="105.6" x2="84.9" y2="105.6"/>
	<line id="gge1941_1" class="st3" x1="84.9" y1="105.6" x2="70.5" y2="105.6"/>
	<line id="gge1940_1" class="st3" x1="70.5" y1="105.6" x2="56.1" y2="105.6"/>
	<line id="gge1939_1" class="st3" x1="56.1" y1="105.6" x2="41.7" y2="105.6"/>
	<line id="gge1938_1" class="st3" x1="41.7" y1="105.6" x2="27.3" y2="105.6"/>
	<line id="gge1934_1" class="st3" x1="113.7" y1="105.6" x2="128.1" y2="105.6"/>
	<line id="gge1932_1" class="st3" x1="128.1" y1="105.6" x2="176.7" y2="105.6"/>
	<line id="gge1931_1" class="st3" x1="-1.5" y1="105.6" x2="12.9" y2="105.6"/>
	<line id="gge1930_1" class="st3" x1="128.1" y1="105.6" x2="176.7" y2="105.6"/>
	<g id="gge1767_11">
		<ellipse class="st4" cx="140.3" cy="58.3" rx="3.5" ry="3.5"/>
	</g>
	<g id="gge1777_11">
		<ellipse class="st4" cx="168.6" cy="58.3" rx="3.5" ry="3.5"/>
	</g>
	<g id="gge1782_11">
		<ellipse class="st4" cx="182.8" cy="58.3" rx="3.5" ry="3.5"/>
	</g>
	<g id="gge1772_11">
		<ellipse class="st4" cx="154.4" cy="58.3" rx="3.5" ry="3.5"/>
	</g>
	<g id="gge721_11">
		<ellipse class="st4" cx="27.3" cy="127.2" rx="2.7" ry="2.7"/>
	</g>
	<g id="gge726_11">
		<ellipse class="st4" cx="27.3" cy="105.6" rx="2.7" ry="2.7"/>
	</g>
	<g id="gge744_11">
		<ellipse class="st4" cx="41.7" cy="127.2" rx="2.7" ry="2.7"/>
	</g>
	<g id="gge749_11">
		<ellipse class="st4" cx="41.7" cy="105.6" rx="2.7" ry="2.7"/>
	</g>
	<g id="gge767_11">
		<ellipse class="st4" cx="56.1" cy="127.2" rx="2.7" ry="2.7"/>
	</g>
	<g id="gge772_11">
		<ellipse class="st4" cx="56.1" cy="105.6" rx="2.7" ry="2.7"/>
	</g>
	<g id="gge790_11">
		<ellipse class="st4" cx="70.5" cy="127.2" rx="2.7" ry="2.7"/>
	</g>
	<g id="gge795_11">
		<ellipse class="st4" cx="70.5" cy="105.6" rx="2.7" ry="2.7"/>
	</g>
	<g id="gge813_11">
		<ellipse class="st4" cx="84.9" cy="127.2" rx="2.7" ry="2.7"/>
	</g>
	<g id="gge818_11">
		<ellipse class="st4" cx="84.9" cy="105.6" rx="2.7" ry="2.7"/>
	</g>
	<g id="gge836_11">
		<ellipse class="st4" cx="99.3" cy="127.2" rx="2.7" ry="2.7"/>
	</g>
	<g id="gge841_11">
		<ellipse class="st4" cx="99.3" cy="105.6" rx="2.7" ry="2.7"/>
	</g>
	<g id="gge859_11">
		<ellipse class="st4" cx="113.7" cy="127.2" rx="2.7" ry="2.7"/>
	</g>
	<g id="gge864_11">
		<ellipse class="st4" cx="113.7" cy="105.6" rx="2.7" ry="2.7"/>
	</g>
	<g id="gge882_11">
		<ellipse class="st4" cx="128.1" cy="127.2" rx="2.7" ry="2.7"/>
	</g>
	<g id="gge887_11">
		<ellipse class="st4" cx="128.1" cy="105.6" rx="2.7" ry="2.7"/>
	</g>
	<g id="gge905_11">
		<ellipse class="st4" cx="12.9" cy="127.2" rx="2.7" ry="2.7"/>
	</g>
	<g id="gge910_11">
		<ellipse class="st4" cx="12.9" cy="105.6" rx="2.7" ry="2.7"/>
	</g>
	<g id="gge928_11">
		<ellipse class="st4" cx="-1.5" cy="127.2" rx="2.7" ry="2.7"/>
	</g>
	<g id="gge933_11">
		<ellipse class="st4" cx="-1.5" cy="105.6" rx="2.7" ry="2.7"/>
	</g>
	<g id="gge11_11">
		<ellipse class="st4" cx="11.6" cy="70" rx="3.2" ry="3.2"/>
	</g>
	<g id="gge16_11">
		<ellipse class="st4" cx="29.6" cy="62.8" rx="3.2" ry="3.2"/>
	</g>
	<g id="gge21_11">
		<ellipse class="st4" cx="8" cy="77.2" rx="3.6" ry="3.6"/>
	</g>
	<g id="gge26_11">
		<ellipse class="st4" cx="36.8" cy="77.2" rx="3.6" ry="3.6"/>
	</g>
	<g id="gge31_11">
		<ellipse class="st4" cx="18.8" cy="91.6" rx="2.5" ry="2.5"/>
	</g>
	<g id="gge36_11">
		<ellipse class="st4" cx="26" cy="91.6" rx="2.5" ry="2.5"/>
	</g>
	<g id="gge51_11">
		<ellipse class="st4" cx="65.6" cy="70" rx="3.2" ry="3.2"/>
	</g>
	<g id="gge56_11">
		<ellipse class="st4" cx="83.6" cy="62.8" rx="3.2" ry="3.2"/>
	</g>
	<g id="gge61_11">
		<ellipse class="st4" cx="62" cy="77.2" rx="3.6" ry="3.6"/>
	</g>
	<g id="gge66_11">
		<ellipse class="st4" cx="90.8" cy="77.2" rx="3.6" ry="3.6"/>
	</g>
	<g id="gge71_11">
		<ellipse class="st4" cx="72.8" cy="91.6" rx="2.5" ry="2.5"/>
	</g>
	<g id="gge76_11">
		<ellipse class="st4" cx="80" cy="91.6" rx="2.5" ry="2.5"/>
	</g>
	<g id="gge91_11">
		<ellipse class="st4" cx="11.6" cy="151.1" rx="3.2" ry="3.2"/>
	</g>
	<g id="gge96_11">
		<ellipse class="st4" cx="29.6" cy="143.9" rx="3.2" ry="3.2"/>
	</g>
	<g id="gge101_11">
		<ellipse class="st4" cx="8" cy="158.3" rx="3.6" ry="3.6"/>
	</g>
	<g id="gge106_11">
		<ellipse class="st4" cx="36.8" cy="158.3" rx="3.6" ry="3.6"/>
	</g>
	<g id="gge111_11">
		<ellipse class="st4" cx="18.8" cy="172.7" rx="2.5" ry="2.5"/>
	</g>
	<g id="gge116_11">
		<ellipse class="st4" cx="26" cy="172.7" rx="2.5" ry="2.5"/>
	</g>
	<g id="gge131_11">
		<ellipse class="st4" cx="65.6" cy="151.1" rx="3.2" ry="3.2"/>
	</g>
	<g id="gge136_11">
		<ellipse class="st4" cx="83.6" cy="143.9" rx="3.2" ry="3.2"/>
	</g>
	<g id="gge141_11">
		<ellipse class="st4" cx="62" cy="158.3" rx="3.6" ry="3.6"/>
	</g>
	<g id="gge146_11">
		<ellipse class="st4" cx="90.8" cy="158.3" rx="3.6" ry="3.6"/>
	</g>
	<g id="gge151_11">
		<ellipse class="st4" cx="72.8" cy="172.7" rx="2.5" ry="2.5"/>
	</g>
	<g id="gge156_11">
		<ellipse class="st4" cx="80" cy="172.7" rx="2.5" ry="2.5"/>
	</g>
	<g id="gge171_11">
		<ellipse class="st4" cx="119.6" cy="151.1" rx="3.2" ry="3.2"/>
	</g>
	<g id="gge176_11">
		<ellipse class="st4" cx="137.6" cy="143.9" rx="3.2" ry="3.2"/>
	</g>
	<g id="gge181_11">
		<ellipse class="st4" cx="116" cy="158.3" rx="3.6" ry="3.6"/>
	</g>
	<g id="gge186_11">
		<ellipse class="st4" cx="144.8" cy="158.3" rx="3.6" ry="3.6"/>
	</g>
	<g id="gge191_11">
		<ellipse class="st4" cx="126.8" cy="172.7" rx="2.5" ry="2.5"/>
	</g>
	<g id="gge196_11">
		<ellipse class="st4" cx="134" cy="172.7" rx="2.5" ry="2.5"/>
	</g>
	<g id="gge211_11">
		<ellipse class="st4" cx="173.6" cy="151.1" rx="3.2" ry="3.2"/>
	</g>
	<g id="gge216_11">
		<ellipse class="st4" cx="191.6" cy="143.9" rx="3.2" ry="3.2"/>
	</g>
	<g id="gge221_11">
		<ellipse class="st4" cx="170" cy="158.3" rx="3.6" ry="3.6"/>
	</g>
	<g id="gge226_11">
		<ellipse class="st4" cx="198.8" cy="158.3" rx="3.6" ry="3.6"/>
	</g>
	<g id="gge231_11">
		<ellipse class="st4" cx="180.8" cy="172.7" rx="2.5" ry="2.5"/>
	</g>
	<g id="gge236_11">
		<ellipse class="st4" cx="188" cy="172.7" rx="2.5" ry="2.5"/>
	</g>
	<g id="gge251_11">
		<ellipse class="st4" cx="11.6" cy="205.1" rx="3.2" ry="3.2"/>
	</g>
	<g id="gge256_11">
		<ellipse class="st4" cx="29.6" cy="197.9" rx="3.2" ry="3.2"/>
	</g>
	<g id="gge261_11">
		<ellipse class="st4" cx="8" cy="212.3" rx="3.6" ry="3.6"/>
	</g>
	<g id="gge266_11">
		<ellipse class="st4" cx="36.8" cy="212.3" rx="3.6" ry="3.6"/>
	</g>
	<g id="gge271_11">
		<ellipse class="st4" cx="18.8" cy="226.7" rx="2.5" ry="2.5"/>
	</g>
	<g id="gge276_11">
		<ellipse class="st4" cx="26" cy="226.7" rx="2.5" ry="2.5"/>
	</g>
	<g id="gge291_11">
		<ellipse class="st4" cx="65.6" cy="205.1" rx="3.2" ry="3.2"/>
	</g>
	<g id="gge296_11">
		<ellipse class="st4" cx="83.6" cy="197.9" rx="3.2" ry="3.2"/>
	</g>
	<g id="gge301_11">
		<ellipse class="st4" cx="62" cy="212.3" rx="3.6" ry="3.6"/>
	</g>
	<g id="gge306_11">
		<ellipse class="st4" cx="90.8" cy="212.3" rx="3.6" ry="3.6"/>
	</g>
	<g id="gge311_11">
		<ellipse class="st4" cx="72.8" cy="226.7" rx="2.5" ry="2.5"/>
	</g>
	<g id="gge316_11">
		<ellipse class="st4" cx="80" cy="226.7" rx="2.5" ry="2.5"/>
	</g>
	<g id="gge331_11">
		<ellipse class="st4" cx="119.6" cy="205.1" rx="3.2" ry="3.2"/>
	</g>
	<g id="gge336_11">
		<ellipse class="st4" cx="137.6" cy="197.9" rx="3.2" ry="3.2"/>
	</g>
	<g id="gge341_11">
		<ellipse class="st4" cx="116" cy="212.3" rx="3.6" ry="3.6"/>
	</g>
	<g id="gge346_11">
		<ellipse class="st4" cx="144.8" cy="212.3" rx="3.6" ry="3.6"/>
	</g>
	<g id="gge351_11">
		<ellipse class="st4" cx="126.8" cy="226.7" rx="2.5" ry="2.5"/>
	</g>
	<g id="gge356_11">
		<ellipse class="st4" cx="134" cy="226.7" rx="2.5" ry="2.5"/>
	</g>
	<g id="gge371_11">
		<ellipse class="st4" cx="173.6" cy="205.1" rx="3.2" ry="3.2"/>
	</g>
	<g id="gge376_11">
		<ellipse class="st4" cx="191.6" cy="197.9" rx="3.2" ry="3.2"/>
	</g>
	<g id="gge381_11">
		<ellipse class="st4" cx="170" cy="212.3" rx="3.6" ry="3.6"/>
	</g>
	<g id="gge386_11">
		<ellipse class="st4" cx="198.8" cy="212.3" rx="3.6" ry="3.6"/>
	</g>
	<g id="gge391_11">
		<ellipse class="st4" cx="180.8" cy="226.7" rx="2.5" ry="2.5"/>
	</g>
	<g id="gge396_11">
		<ellipse class="st4" cx="188" cy="226.7" rx="2.5" ry="2.5"/>
	</g>
	<g id="gge651_11">
		<line class="st5" x1="168.9" y1="75.8" x2="168.9" y2="78.7"/>
	</g>
	<g id="gge656_11">
		<polygon class="st4" points="171.2,74.4 174,74.4 174,80.1 171.2,80.1 		"/>
	</g>
	<g id="gge661_11">
		<line class="st5" x1="176.3" y1="75.8" x2="176.3" y2="78.7"/>
	</g>
	<g id="gge666_11">
		<line class="st5" x1="179.9" y1="75.8" x2="179.9" y2="78.7"/>
	</g>
	<g id="gge688_11">
		<line class="st5" x1="134.9" y1="75.8" x2="134.9" y2="78.7"/>
	</g>
	<g id="gge693_11">
		<polygon class="st4" points="137.1,74.4 140,74.4 140,80.1 137.1,80.1 		"/>
	</g>
	<g id="gge698_11">
		<line class="st5" x1="142.2" y1="75.8" x2="142.2" y2="78.7"/>
	</g>
	<g id="gge703_11">
		<line class="st5" x1="145.9" y1="75.8" x2="145.9" y2="78.7"/>
	</g>
	<g id="gge2028_11">
		<circle class="st4" cx="101.3" cy="147.8" r="0.9"/>
	</g>
	<g id="gge2017_11">
		<circle class="st4" cx="169.6" cy="83" r="0.9"/>
	</g>
	<g id="gge2014_11">
		<circle class="st4" cx="174.1" cy="88.5" r="0.9"/>
	</g>
	<g id="gge2011_11">
		<circle class="st4" cx="184.8" cy="94.3" r="0.9"/>
	</g>
	<g id="gge2008_11">
		<circle class="st4" cx="101.1" cy="140.7" r="0.9"/>
	</g>
	<g id="gge2007_11">
		<circle class="st4" cx="118.3" cy="109.4" r="0.9"/>
	</g>
	<g id="gge2006_11">
		<circle class="st4" cx="174.7" cy="109.4" r="0.9"/>
	</g>
	<g id="gge2001_11">
		<circle class="st4" cx="165.3" cy="194.2" r="0.9"/>
	</g>
	<g id="gge1998_11">
		<circle class="st4" cx="170.9" cy="124.3" r="0.9"/>
	</g>
	<g id="gge1995_11">
		<circle class="st4" cx="162.9" cy="124.6" r="0.9"/>
	</g>
	<g id="gge1992_11">
		<circle class="st4" cx="153.4" cy="151.1" r="0.9"/>
	</g>
	<g id="gge1989_11">
		<circle class="st4" cx="151.7" cy="132.6" r="0.9"/>
	</g>
	<g id="gge1986_11">
		<circle class="st4" cx="133.5" cy="84" r="0.9"/>
	</g>
	<g id="gge1983_11">
		<circle class="st4" cx="135.6" cy="95.1" r="0.9"/>
	</g>
	<g id="gge1945_11">
		<circle class="st4" cx="176.7" cy="105.6" r="0.9"/>
	</g>
</g>
<defs>
	<filter id="Adobe_OpacityMaskFilter_1_" filterUnits="userSpaceOnUse" x="-4.1" y="54.8" width="206.6" height="174.4">
		<feColorMatrix  type="matrix" values="1 0 0 0 0  0 1 0 0 0  0 0 1 0 0  0 0 0 1 0"/>
	</filter>
</defs>
<mask maskUnits="userSpaceOnUse" x="-4.1" y="54.8" width="206.6" height="174.4" id="topSignalSolderMask">
	<path class="st6" d="M-1.5,246.8v-11.3l0,0l0,0h-11.3V54h11.3l0,0l0,0V42.7h209.8V54l0,0l0,0h11.3v181.4h-11.3l0,0l0,0v11.3H-1.5z"
		/>
	<g>
		<ellipse cx="140.3" cy="58.3" rx="3.8" ry="3.8"/>
		<ellipse cx="168.6" cy="58.3" rx="3.8" ry="3.8"/>
		<ellipse cx="182.8" cy="58.3" rx="3.8" ry="3.8"/>
		<ellipse cx="154.4" cy="58.3" rx="3.8" ry="3.8"/>
		<ellipse cx="27.3" cy="127.2" rx="3" ry="3"/>
		<ellipse cx="27.3" cy="105.6" rx="3" ry="3"/>
		<ellipse cx="41.7" cy="127.2" rx="3" ry="3"/>
		<ellipse cx="41.7" cy="105.6" rx="3" ry="3"/>
		<ellipse cx="56.1" cy="127.2" rx="3" ry="3"/>
		<ellipse cx="56.1" cy="105.6" rx="3" ry="3"/>
		<ellipse cx="70.5" cy="127.2" rx="3" ry="3"/>
		<ellipse cx="70.5" cy="105.6" rx="3" ry="3"/>
		<ellipse cx="84.9" cy="127.2" rx="3" ry="3"/>
		<ellipse cx="84.9" cy="105.6" rx="3" ry="3"/>
		<ellipse cx="99.3" cy="127.2" rx="3" ry="3"/>
		<ellipse cx="99.3" cy="105.6" rx="3" ry="3"/>
		<ellipse cx="113.7" cy="127.2" rx="3" ry="3"/>
		<ellipse cx="113.7" cy="105.6" rx="3" ry="3"/>
		<ellipse cx="128.1" cy="127.2" rx="3" ry="3"/>
		<ellipse cx="128.1" cy="105.6" rx="3" ry="3"/>
		<ellipse cx="12.9" cy="127.2" rx="3" ry="3"/>
		<ellipse cx="12.9" cy="105.6" rx="3" ry="3"/>
		<ellipse cx="-1.5" cy="127.2" rx="3" ry="3"/>
		<ellipse cx="-1.5" cy="105.6" rx="3" ry="3"/>
		<ellipse cx="11.6" cy="70" rx="3.5" ry="3.5"/>
		<ellipse cx="29.6" cy="62.8" rx="3.5" ry="3.5"/>
		<ellipse cx="8" cy="77.2" rx="3.9" ry="3.9"/>
		<ellipse cx="36.8" cy="77.2" rx="3.9" ry="3.9"/>
		<ellipse cx="18.8" cy="91.6" rx="2.8" ry="2.8"/>
		<ellipse cx="26" cy="91.6" rx="2.8" ry="2.8"/>
		<ellipse cx="65.6" cy="70" rx="3.5" ry="3.5"/>
		<ellipse cx="83.6" cy="62.8" rx="3.5" ry="3.5"/>
		<ellipse cx="62" cy="77.2" rx="3.9" ry="3.9"/>
		<ellipse cx="90.8" cy="77.2" rx="3.9" ry="3.9"/>
		<ellipse cx="72.8" cy="91.6" rx="2.8" ry="2.8"/>
		<ellipse cx="80" cy="91.6" rx="2.8" ry="2.8"/>
		<ellipse cx="11.6" cy="151.1" rx="3.5" ry="3.5"/>
		<ellipse cx="29.6" cy="143.9" rx="3.5" ry="3.5"/>
		<ellipse cx="8" cy="158.3" rx="3.9" ry="3.9"/>
		<ellipse cx="36.8" cy="158.3" rx="3.9" ry="3.9"/>
		<ellipse cx="18.8" cy="172.7" rx="2.8" ry="2.8"/>
		<ellipse cx="26" cy="172.7" rx="2.8" ry="2.8"/>
		<ellipse cx="65.6" cy="151.1" rx="3.5" ry="3.5"/>
		<ellipse cx="83.6" cy="143.9" rx="3.5" ry="3.5"/>
		<ellipse cx="62" cy="158.3" rx="3.9" ry="3.9"/>
		<ellipse cx="90.8" cy="158.3" rx="3.9" ry="3.9"/>
		<ellipse cx="72.8" cy="172.7" rx="2.8" ry="2.8"/>
		<ellipse cx="80" cy="172.7" rx="2.8" ry="2.8"/>
		<ellipse cx="119.6" cy="151.1" rx="3.5" ry="3.5"/>
		<ellipse cx="137.6" cy="143.9" rx="3.5" ry="3.5"/>
		<ellipse cx="116" cy="158.3" rx="3.9" ry="3.9"/>
		<ellipse cx="144.8" cy="158.3" rx="3.9" ry="3.9"/>
		<ellipse cx="126.8" cy="172.7" rx="2.8" ry="2.8"/>
		<ellipse cx="134" cy="172.7" rx="2.8" ry="2.8"/>
		<ellipse cx="173.6" cy="151.1" rx="3.5" ry="3.5"/>
		<ellipse cx="191.6" cy="143.9" rx="3.5" ry="3.5"/>
		<ellipse cx="170" cy="158.3" rx="3.9" ry="3.9"/>
		<ellipse cx="198.8" cy="158.3" rx="3.9" ry="3.9"/>
		<ellipse cx="180.8" cy="172.7" rx="2.8" ry="2.8"/>
		<ellipse cx="188" cy="172.7" rx="2.8" ry="2.8"/>
		<ellipse cx="11.6" cy="205.1" rx="3.5" ry="3.5"/>
		<ellipse cx="29.6" cy="197.9" rx="3.5" ry="3.5"/>
		<ellipse cx="8" cy="212.3" rx="3.9" ry="3.9"/>
		<ellipse cx="36.8" cy="212.3" rx="3.9" ry="3.9"/>
		<ellipse cx="18.8" cy="226.7" rx="2.8" ry="2.8"/>
		<ellipse cx="26" cy="226.7" rx="2.8" ry="2.8"/>
		<ellipse cx="65.6" cy="205.1" rx="3.5" ry="3.5"/>
		<ellipse cx="83.6" cy="197.9" rx="3.5" ry="3.5"/>
		<ellipse cx="62" cy="212.3" rx="3.9" ry="3.9"/>
		<ellipse cx="90.8" cy="212.3" rx="3.9" ry="3.9"/>
		<ellipse cx="72.8" cy="226.7" rx="2.8" ry="2.8"/>
		<ellipse cx="80" cy="226.7" rx="2.8" ry="2.8"/>
		<ellipse cx="119.6" cy="205.1" rx="3.5" ry="3.5"/>
		<ellipse cx="137.6" cy="197.9" rx="3.5" ry="3.5"/>
		<ellipse cx="116" cy="212.3" rx="3.9" ry="3.9"/>
		<ellipse cx="144.8" cy="212.3" rx="3.9" ry="3.9"/>
		<ellipse cx="126.8" cy="226.7" rx="2.8" ry="2.8"/>
		<ellipse cx="134" cy="226.7" rx="2.8" ry="2.8"/>
		<ellipse cx="173.6" cy="205.1" rx="3.5" ry="3.5"/>
		<ellipse cx="191.6" cy="197.9" rx="3.5" ry="3.5"/>
		<ellipse cx="170" cy="212.3" rx="3.9" ry="3.9"/>
		<ellipse cx="198.8" cy="212.3" rx="3.9" ry="3.9"/>
		<ellipse cx="180.8" cy="226.7" rx="2.8" ry="2.8"/>
		<ellipse cx="188" cy="226.7" rx="2.8" ry="2.8"/>
		<path d="M167.2,75.8c0-0.9,0.8-1.7,1.7-1.7c0.9,0,1.7,0.8,1.7,1.7v2.8c0,0.9-0.8,1.7-1.7,1.7c-0.9,0-1.7-0.8-1.7-1.7V75.8z"/>
		<polygon points="170.9,80.4 170.9,74.1 174.3,74.1 174.3,80.4 		"/>
		<path d="M174.6,75.8c0-0.9,0.8-1.7,1.7-1.7c0.9,0,1.7,0.8,1.7,1.7v2.8c0,0.9-0.8,1.7-1.7,1.7c-0.9,0-1.7-0.8-1.7-1.7V75.8z"/>
		<path d="M178.2,75.8c0-0.9,0.8-1.7,1.7-1.7c0.9,0,1.7,0.8,1.7,1.7v2.8c0,0.9-0.8,1.7-1.7,1.7c-0.9,0-1.7-0.8-1.7-1.7V75.8z"/>
		<path d="M133.2,75.8c0-0.9,0.8-1.7,1.7-1.7c0.9,0,1.7,0.8,1.7,1.7v2.8c0,0.9-0.8,1.7-1.7,1.7c-0.9,0-1.7-0.8-1.7-1.7V75.8z"/>
		<polygon points="136.9,80.4 136.9,74.1 140.3,74.1 140.3,80.4 		"/>
		<path d="M140.5,75.8c0-0.9,0.8-1.7,1.7-1.7s1.7,0.8,1.7,1.7v2.8c0,0.9-0.8,1.7-1.7,1.7s-1.7-0.8-1.7-1.7V75.8z"/>
		<path d="M144.2,75.8c0-0.9,0.8-1.7,1.7-1.7c0.9,0,1.7,0.8,1.7,1.7v2.8c0,0.9-0.8,1.7-1.7,1.7c-0.9,0-1.7-0.8-1.7-1.7V75.8z"/>
	</g>
</mask>
<g id="topSignalSolderReal" class="st7">
	<polyline id="gge2031_1_1_" class="st8" points="12.9,127.2 17.9,122.2 116.6,122.2 125.2,130.7 151.5,130.7 159.6,122.6 
		176.7,122.6 195.9,141.8 195.9,146.4 193.1,149.2 193.1,160.4 180.8,172.7 	"/>
	<polyline id="gge2030_1_1_" class="st8" points="128.1,127.2 100,99.1 80.2,99.1 72.8,91.6 	"/>
	<polyline id="gge2029_1_1_" class="st8" points="18.8,172.7 25.5,166 35.7,166 54.8,147 80,147 81.2,148.1 89.3,148.1 110.3,127.2 
		113.7,127.2 	"/>
	<polyline id="gge2026_1_1_" class="st8" points="101.3,147.8 95.6,153.5 89.2,153.5 85.7,157 85.7,160.5 80.1,166.2 79.3,166.2 
		72.8,172.7 	"/>
	<polyline id="gge2016_1_1_" class="st8" points="145.9,77.2 151.7,83 169.6,83 	"/>
	<polyline id="gge2013_1_1_" class="st8" points="142.2,77.2 142.2,78.6 152.1,88.5 174.1,88.5 	"/>
	<polyline id="gge2009_1_1_" class="st8" points="134.9,77.2 134.9,79.1 150.1,94.3 184.8,94.3 	"/>
	<polyline id="gge2004_1_1_" class="st8" points="65.6,151.1 90.7,151.1 101.1,140.7 	"/>
	<line id="gge2002_1_1_" class="st8" x1="118.3" y1="109.4" x2="174.7" y2="109.4"/>
	<polyline id="gge2000_1_1_" class="st8" points="165.3,194.2 154.5,205.1 119.6,205.1 	"/>
	<polyline id="gge1996_1_1_" class="st8" points="170.9,124.3 156.4,138.7 120.5,138.7 91.6,167.6 79.7,167.6 76.4,171 76.4,175.8 
		87.7,187.1 87.7,199.6 82.2,205.1 65.6,205.1 	"/>
	<polyline id="gge1993_1_1_" class="st8" points="162.9,124.6 153.2,134.4 109.9,134.4 92,152.3 88.7,152.3 84.1,156.9 84.1,160.1 
		79.3,164.9 51.8,164.9 11.6,205.1 	"/>
	<line id="gge1990_1_1_" class="st8" x1="119.6" y1="151.1" x2="153.4" y2="151.1"/>
	<polyline id="gge1987_1_1_" class="st8" points="11.6,151.1 39.2,123.4 114.9,123.4 124,132.6 151.7,132.6 	"/>
	<polyline id="gge1984_1_1_" class="st8" points="11.6,70 42.9,70 56.9,84 133.5,84 	"/>
	<polyline id="gge1981_1_1_" class="st8" points="65.6,70 122.2,70 135.6,83.4 135.6,95.1 	"/>
	<line id="gge1971_1_1_" class="st8" x1="83.6" y1="143.9" x2="29.6" y2="143.9"/>
	<line id="gge1968_1_1_" class="st8" x1="29.6" y1="197.9" x2="83.6" y2="197.9"/>
	<line id="gge1964_1_1_" class="st8" x1="138.6" y1="77.2" x2="138.6" y2="73.5"/>
	<line id="gge1963_1_1_" class="st8" x1="29.6" y1="62.8" x2="83.6" y2="62.8"/>
	<polyline id="gge1962_1_1_" class="st8" points="80,172.7 83.4,176 134,176 	"/>
	<polyline id="gge1961_1_1_" class="st8" points="137.6,197.9 134,194.3 134,176 	"/>
	<line id="gge1960_1_1_" class="st8" x1="134" y1="176" x2="134" y2="172.7"/>
	<line id="gge1959_1_1_" class="st8" x1="138.6" y1="67.7" x2="138.6" y2="73.5"/>
	<line id="gge1958_1_1_" class="st8" x1="172.6" y1="77.2" x2="172.6" y2="73.5"/>
	<line id="gge1957_1_1_" class="st8" x1="154.4" y1="58.3" x2="154.4" y2="67.7"/>
	<line id="gge1956_1_1_" class="st8" x1="138.6" y1="67.7" x2="154.4" y2="67.7"/>
	<polyline id="gge1955_1_1_" class="st8" points="154.4,67.7 166.7,67.7 172.6,73.5 	"/>
	<line id="gge1952_1_1_" class="st8" x1="137.6" y1="143.9" x2="191.6" y2="143.9"/>
	<polyline id="gge1948_1_1_" class="st8" points="83.6,62.8 88.4,67.7 138.6,67.7 	"/>
	<line id="gge1944_1_1_" class="st8" x1="12.9" y1="105.6" x2="27.3" y2="105.6"/>
	<line id="gge1942_1_1_" class="st8" x1="99.3" y1="105.6" x2="84.9" y2="105.6"/>
	<line id="gge1941_1_1_" class="st8" x1="84.9" y1="105.6" x2="70.5" y2="105.6"/>
	<line id="gge1940_1_1_" class="st8" x1="70.5" y1="105.6" x2="56.1" y2="105.6"/>
	<line id="gge1939_1_1_" class="st8" x1="56.1" y1="105.6" x2="41.7" y2="105.6"/>
	<line id="gge1938_1_1_" class="st8" x1="41.7" y1="105.6" x2="27.3" y2="105.6"/>
	<line id="gge1934_1_1_" class="st8" x1="113.7" y1="105.6" x2="128.1" y2="105.6"/>
	<line id="gge1932_1_1_" class="st8" x1="128.1" y1="105.6" x2="176.7" y2="105.6"/>
	<line id="gge1931_1_1_" class="st8" x1="-1.5" y1="105.6" x2="12.9" y2="105.6"/>
	<line id="gge1930_1_1_" class="st8" x1="128.1" y1="105.6" x2="176.7" y2="105.6"/>
	<g id="gge1767_11_1_">
		<ellipse class="st9" cx="140.3" cy="58.3" rx="3.5" ry="3.5"/>
	</g>
	<g id="gge1777_11_1_">
		<ellipse class="st9" cx="168.6" cy="58.3" rx="3.5" ry="3.5"/>
	</g>
	<g id="gge1782_11_1_">
		<ellipse class="st9" cx="182.8" cy="58.3" rx="3.5" ry="3.5"/>
	</g>
	<g id="gge1772_11_1_">
		<ellipse class="st9" cx="154.4" cy="58.3" rx="3.5" ry="3.5"/>
	</g>
	<g id="gge721_11_1_">
		<ellipse class="st9" cx="27.3" cy="127.2" rx="2.7" ry="2.7"/>
	</g>
	<g id="gge726_11_1_">
		<ellipse class="st9" cx="27.3" cy="105.6" rx="2.7" ry="2.7"/>
	</g>
	<g id="gge744_11_1_">
		<ellipse class="st9" cx="41.7" cy="127.2" rx="2.7" ry="2.7"/>
	</g>
	<g id="gge749_11_1_">
		<ellipse class="st9" cx="41.7" cy="105.6" rx="2.7" ry="2.7"/>
	</g>
	<g id="gge767_11_1_">
		<ellipse class="st9" cx="56.1" cy="127.2" rx="2.7" ry="2.7"/>
	</g>
	<g id="gge772_11_1_">
		<ellipse class="st9" cx="56.1" cy="105.6" rx="2.7" ry="2.7"/>
	</g>
	<g id="gge790_11_1_">
		<ellipse class="st9" cx="70.5" cy="127.2" rx="2.7" ry="2.7"/>
	</g>
	<g id="gge795_11_1_">
		<ellipse class="st9" cx="70.5" cy="105.6" rx="2.7" ry="2.7"/>
	</g>
	<g id="gge813_11_1_">
		<ellipse class="st9" cx="84.9" cy="127.2" rx="2.7" ry="2.7"/>
	</g>
	<g id="gge818_11_1_">
		<ellipse class="st9" cx="84.9" cy="105.6" rx="2.7" ry="2.7"/>
	</g>
	<g id="gge836_11_1_">
		<ellipse class="st9" cx="99.3" cy="127.2" rx="2.7" ry="2.7"/>
	</g>
	<g id="gge841_11_1_">
		<ellipse class="st9" cx="99.3" cy="105.6" rx="2.7" ry="2.7"/>
	</g>
	<g id="gge859_11_1_">
		<ellipse class="st9" cx="113.7" cy="127.2" rx="2.7" ry="2.7"/>
	</g>
	<g id="gge864_11_1_">
		<ellipse class="st9" cx="113.7" cy="105.6" rx="2.7" ry="2.7"/>
	</g>
	<g id="gge882_11_1_">
		<ellipse class="st9" cx="128.1" cy="127.2" rx="2.7" ry="2.7"/>
	</g>
	<g id="gge887_11_1_">
		<ellipse class="st9" cx="128.1" cy="105.6" rx="2.7" ry="2.7"/>
	</g>
	<g id="gge905_11_1_">
		<ellipse class="st9" cx="12.9" cy="127.2" rx="2.7" ry="2.7"/>
	</g>
	<g id="gge910_11_1_">
		<ellipse class="st9" cx="12.9" cy="105.6" rx="2.7" ry="2.7"/>
	</g>
	<g id="gge928_11_1_">
		<ellipse class="st9" cx="-1.5" cy="127.2" rx="2.7" ry="2.7"/>
	</g>
	<g id="gge933_11_1_">
		<ellipse class="st9" cx="-1.5" cy="105.6" rx="2.7" ry="2.7"/>
	</g>
	<g id="gge11_11_1_">
		<ellipse class="st9" cx="11.6" cy="70" rx="3.2" ry="3.2"/>
	</g>
	<g id="gge16_11_1_">
		<ellipse class="st9" cx="29.6" cy="62.8" rx="3.2" ry="3.2"/>
	</g>
	<g id="gge21_11_1_">
		<ellipse class="st9" cx="8" cy="77.2" rx="3.6" ry="3.6"/>
	</g>
	<g id="gge26_11_1_">
		<ellipse class="st9" cx="36.8" cy="77.2" rx="3.6" ry="3.6"/>
	</g>
	<g id="gge31_11_1_">
		<ellipse class="st9" cx="18.8" cy="91.6" rx="2.5" ry="2.5"/>
	</g>
	<g id="gge36_11_1_">
		<ellipse class="st9" cx="26" cy="91.6" rx="2.5" ry="2.5"/>
	</g>
	<g id="gge51_11_1_">
		<ellipse class="st9" cx="65.6" cy="70" rx="3.2" ry="3.2"/>
	</g>
	<g id="gge56_11_1_">
		<ellipse class="st9" cx="83.6" cy="62.8" rx="3.2" ry="3.2"/>
	</g>
	<g id="gge61_11_1_">
		<ellipse class="st9" cx="62" cy="77.2" rx="3.6" ry="3.6"/>
	</g>
	<g id="gge66_11_1_">
		<ellipse class="st9" cx="90.8" cy="77.2" rx="3.6" ry="3.6"/>
	</g>
	<g id="gge71_11_1_">
		<ellipse class="st9" cx="72.8" cy="91.6" rx="2.5" ry="2.5"/>
	</g>
	<g id="gge76_11_1_">
		<ellipse class="st9" cx="80" cy="91.6" rx="2.5" ry="2.5"/>
	</g>
	<g id="gge91_11_1_">
		<ellipse class="st9" cx="11.6" cy="151.1" rx="3.2" ry="3.2"/>
	</g>
	<g id="gge96_11_1_">
		<ellipse class="st9" cx="29.6" cy="143.9" rx="3.2" ry="3.2"/>
	</g>
	<g id="gge101_11_1_">
		<ellipse class="st9" cx="8" cy="158.3" rx="3.6" ry="3.6"/>
	</g>
	<g id="gge106_11_1_">
		<ellipse class="st9" cx="36.8" cy="158.3" rx="3.6" ry="3.6"/>
	</g>
	<g id="gge111_11_1_">
		<ellipse class="st9" cx="18.8" cy="172.7" rx="2.5" ry="2.5"/>
	</g>
	<g id="gge116_11_1_">
		<ellipse class="st9" cx="26" cy="172.7" rx="2.5" ry="2.5"/>
	</g>
	<g id="gge131_11_1_">
		<ellipse class="st9" cx="65.6" cy="151.1" rx="3.2" ry="3.2"/>
	</g>
	<g id="gge136_11_1_">
		<ellipse class="st9" cx="83.6" cy="143.9" rx="3.2" ry="3.2"/>
	</g>
	<g id="gge141_11_1_">
		<ellipse class="st9" cx="62" cy="158.3" rx="3.6" ry="3.6"/>
	</g>
	<g id="gge146_11_1_">
		<ellipse class="st9" cx="90.8" cy="158.3" rx="3.6" ry="3.6"/>
	</g>
	<g id="gge151_11_1_">
		<ellipse class="st9" cx="72.8" cy="172.7" rx="2.5" ry="2.5"/>
	</g>
	<g id="gge156_11_1_">
		<ellipse class="st9" cx="80" cy="172.7" rx="2.5" ry="2.5"/>
	</g>
	<g id="gge171_11_1_">
		<ellipse class="st9" cx="119.6" cy="151.1" rx="3.2" ry="3.2"/>
	</g>
	<g id="gge176_11_1_">
		<ellipse class="st9" cx="137.6" cy="143.9" rx="3.2" ry="3.2"/>
	</g>
	<g id="gge181_11_1_">
		<ellipse class="st9" cx="116" cy="158.3" rx="3.6" ry="3.6"/>
	</g>
	<g id="gge186_11_1_">
		<ellipse class="st9" cx="144.8" cy="158.3" rx="3.6" ry="3.6"/>
	</g>
	<g id="gge191_11_1_">
		<ellipse class="st9" cx="126.8" cy="172.7" rx="2.5" ry="2.5"/>
	</g>
	<g id="gge196_11_1_">
		<ellipse class="st9" cx="134" cy="172.7" rx="2.5" ry="2.5"/>
	</g>
	<g id="gge211_11_1_">
		<ellipse class="st9" cx="173.6" cy="151.1" rx="3.2" ry="3.2"/>
	</g>
	<g id="gge216_11_1_">
		<ellipse class="st9" cx="191.6" cy="143.9" rx="3.2" ry="3.2"/>
	</g>
	<g id="gge221_11_1_">
		<ellipse class="st9" cx="170" cy="158.3" rx="3.6" ry="3.6"/>
	</g>
	<g id="gge226_11_1_">
		<ellipse class="st9" cx="198.8" cy="158.3" rx="3.6" ry="3.6"/>
	</g>
	<g id="gge231_11_1_">
		<ellipse class="st9" cx="180.8" cy="172.7" rx="2.5" ry="2.5"/>
	</g>
	<g id="gge236_11_1_">
		<ellipse class="st9" cx="188" cy="172.7" rx="2.5" ry="2.5"/>
	</g>
	<g id="gge251_11_1_">
		<ellipse class="st9" cx="11.6" cy="205.1" rx="3.2" ry="3.2"/>
	</g>
	<g id="gge256_11_1_">
		<ellipse class="st9" cx="29.6" cy="197.9" rx="3.2" ry="3.2"/>
	</g>
	<g id="gge261_11_1_">
		<ellipse class="st9" cx="8" cy="212.3" rx="3.6" ry="3.6"/>
	</g>
	<g id="gge266_11_1_">
		<ellipse class="st9" cx="36.8" cy="212.3" rx="3.6" ry="3.6"/>
	</g>
	<g id="gge271_11_1_">
		<ellipse class="st9" cx="18.8" cy="226.7" rx="2.5" ry="2.5"/>
	</g>
	<g id="gge276_11_1_">
		<ellipse class="st9" cx="26" cy="226.7" rx="2.5" ry="2.5"/>
	</g>
	<g id="gge291_11_1_">
		<ellipse class="st9" cx="65.6" cy="205.1" rx="3.2" ry="3.2"/>
	</g>
	<g id="gge296_11_1_">
		<ellipse class="st9" cx="83.6" cy="197.9" rx="3.2" ry="3.2"/>
	</g>
	<g id="gge301_11_1_">
		<ellipse class="st9" cx="62" cy="212.3" rx="3.6" ry="3.6"/>
	</g>
	<g id="gge306_11_1_">
		<ellipse class="st9" cx="90.8" cy="212.3" rx="3.6" ry="3.6"/>
	</g>
	<g id="gge311_11_1_">
		<ellipse class="st9" cx="72.8" cy="226.7" rx="2.5" ry="2.5"/>
	</g>
	<g id="gge316_11_1_">
		<ellipse class="st9" cx="80" cy="226.7" rx="2.5" ry="2.5"/>
	</g>
	<g id="gge331_11_1_">
		<ellipse class="st9" cx="119.6" cy="205.1" rx="3.2" ry="3.2"/>
	</g>
	<g id="gge336_11_1_">
		<ellipse class="st9" cx="137.6" cy="197.9" rx="3.2" ry="3.2"/>
	</g>
	<g id="gge341_11_1_">
		<ellipse class="st9" cx="116" cy="212.3" rx="3.6" ry="3.6"/>
	</g>
	<g id="gge346_11_1_">
		<ellipse class="st9" cx="144.8" cy="212.3" rx="3.6" ry="3.6"/>
	</g>
	<g id="gge351_11_1_">
		<ellipse class="st9" cx="126.8" cy="226.7" rx="2.5" ry="2.5"/>
	</g>
	<g id="gge356_11_1_">
		<ellipse class="st9" cx="134" cy="226.7" rx="2.5" ry="2.5"/>
	</g>
	<g id="gge371_11_1_">
		<ellipse class="st9" cx="173.6" cy="205.1" rx="3.2" ry="3.2"/>
	</g>
	<g id="gge376_11_1_">
		<ellipse class="st9" cx="191.6" cy="197.9" rx="3.2" ry="3.2"/>
	</g>
	<g id="gge381_11_1_">
		<ellipse class="st9" cx="170" cy="212.3" rx="3.6" ry="3.6"/>
	</g>
	<g id="gge386_11_1_">
		<ellipse class="st9" cx="198.8" cy="212.3" rx="3.6" ry="3.6"/>
	</g>
	<g id="gge391_11_1_">
		<ellipse class="st9" cx="180.8" cy="226.7" rx="2.5" ry="2.5"/>
	</g>
	<g id="gge396_11_1_">
		<ellipse class="st9" cx="188" cy="226.7" rx="2.5" ry="2.5"/>
	</g>
	<g id="gge651_11_1_">
		<line class="st10" x1="168.9" y1="75.8" x2="168.9" y2="78.7"/>
	</g>
	<g id="gge656_11_1_">
		<polygon class="st9" points="171.2,74.4 174,74.4 174,80.1 171.2,80.1 		"/>
	</g>
	<g id="gge661_11_1_">
		<line class="st10" x1="176.3" y1="75.8" x2="176.3" y2="78.7"/>
	</g>
	<g id="gge666_11_1_">
		<line class="st10" x1="179.9" y1="75.8" x2="179.9" y2="78.7"/>
	</g>
	<g id="gge688_11_1_">
		<line class="st10" x1="134.9" y1="75.8" x2="134.9" y2="78.7"/>
	</g>
	<g id="gge693_11_1_">
		<polygon class="st9" points="137.1,74.4 140,74.4 140,80.1 137.1,80.1 		"/>
	</g>
	<g id="gge698_11_1_">
		<line class="st10" x1="142.2" y1="75.8" x2="142.2" y2="78.7"/>
	</g>
	<g id="gge703_11_1_">
		<line class="st10" x1="145.9" y1="75.8" x2="145.9" y2="78.7"/>
	</g>
	<g id="gge2028_11_1_">
		<circle class="st9" cx="101.3" cy="147.8" r="0.9"/>
	</g>
	<g id="gge2017_11_1_">
		<circle class="st9" cx="169.6" cy="83" r="0.9"/>
	</g>
	<g id="gge2014_11_1_">
		<circle class="st9" cx="174.1" cy="88.5" r="0.9"/>
	</g>
	<g id="gge2011_11_1_">
		<circle class="st9" cx="184.8" cy="94.3" r="0.9"/>
	</g>
	<g id="gge2008_11_1_">
		<circle class="st9" cx="101.1" cy="140.7" r="0.9"/>
	</g>
	<g id="gge2007_11_1_">
		<circle class="st9" cx="118.3" cy="109.4" r="0.9"/>
	</g>
	<g id="gge2006_11_1_">
		<circle class="st9" cx="174.7" cy="109.4" r="0.9"/>
	</g>
	<g id="gge2001_11_1_">
		<circle class="st9" cx="165.3" cy="194.2" r="0.9"/>
	</g>
	<g id="gge1998_11_1_">
		<circle class="st9" cx="170.9" cy="124.3" r="0.9"/>
	</g>
	<g id="gge1995_11_1_">
		<circle class="st9" cx="162.9" cy="124.6" r="0.9"/>
	</g>
	<g id="gge1992_11_1_">
		<circle class="st9" cx="153.4" cy="151.1" r="0.9"/>
	</g>
	<g id="gge1989_11_1_">
		<circle class="st9" cx="151.7" cy="132.6" r="0.9"/>
	</g>
	<g id="gge1986_11_1_">
		<circle class="st9" cx="133.5" cy="84" r="0.9"/>
	</g>
	<g id="gge1983_11_1_">
		<circle class="st9" cx="135.6" cy="95.1" r="0.9"/>
	</g>
	<g id="gge1945_11_1_">
		<circle class="st9" cx="176.7" cy="105.6" r="0.9"/>
	</g>
</g>
<g id="topSilkLayer">
	<g id="gge1792_3">
		<path class="st11" d="M137.4,47.8l1.2,3.2 M139.9,47.8l-1.2,3.2 M143.2,48.6l-0.2-0.3l-0.3-0.3l-0.3-0.2h-0.6l-0.3,0.2l-0.3,0.3
			l-0.2,0.3l-0.2,0.5v0.8l0.2,0.5l0.2,0.3l0.3,0.3l0.3,0.2h0.6l0.3-0.2l0.3-0.3l0.2-0.3 M146.6,48.6l-0.2-0.3l-0.3-0.3l-0.3-0.2
			h-0.6l-0.3,0.2l-0.3,0.3l-0.2,0.3l-0.2,0.5v0.8l0.2,0.5l0.2,0.3l0.3,0.3l0.3,0.2h0.6l0.3-0.2l0.3-0.3l0.2-0.3 M154.7,48.6
			l-0.2-0.3l-0.3-0.3l-0.3-0.2h-0.6l-0.3,0.2l-0.3,0.3l-0.2,0.3l-0.2,0.5v0.8l0.2,0.5l0.2,0.3l0.3,0.3l0.3,0.2h0.6l0.3-0.2l0.3-0.3
			l0.2-0.3v-0.5 M153.9,49.8h0.8 M155.7,47.8V51 M155.7,47.8l2.2,3.2 M157.9,47.8V51 M158.9,47.8V51 M158.9,47.8h1.1l0.5,0.2
			l0.3,0.3l0.2,0.3L161,49v0.8l-0.2,0.5l-0.2,0.3l-0.3,0.3L160,51h-1.1 M167.9,47.8V51 M166.8,47.8h2.2 M170,47.8l2.2,3.2
			 M172.2,47.8L170,51 M178,47.8V51 M178,47.8h1.4l0.5,0.2l0.2,0.2l0.2,0.3v0.3L180,49l-0.2,0.2l-0.5,0.2H178 M179,49.3l1.1,1.7
			 M181.2,47.8l2.2,3.2 M183.3,47.8l-2.2,3.2"/>
	</g>
	<g id="gge2_3" class="st12">
		<path class="st13" d="M24.6,48.1l-0.2-0.3l-0.3-0.3l-0.3-0.1h-0.6L23,47.5l-0.3,0.3l-0.2,0.3l-0.1,0.4v0.7l0.1,0.4l0.2,0.3
			l0.3,0.3l0.3,0.1h0.6l0.3-0.1l0.3-0.3l0.2-0.3 M25.6,47.3v3.1 M27.6,47.3v3.1 M25.6,48.8h2.1 M28.6,47.3v3.1 M28.6,47.3h1.9
			 M28.6,48.8h1.2 M28.6,50.4h1.9 M31.5,47.3v3.1 M31.5,47.3h1.3l0.4,0.1l0.1,0.2l0.1,0.3v0.3l-0.1,0.3l-0.1,0.1l-0.4,0.1h-1.3
			 M32.5,48.8l1,1.6 M34.5,47.3v3.1 M34.5,47.3h1.3l0.4,0.1l0.1,0.2l0.2,0.3v0.3l-0.2,0.3l-0.1,0.1l-0.4,0.1h-1.3 M35.6,48.8l1,1.6
			 M37.6,47.3l1.2,1.5v1.6 M39.9,47.3l-1.2,1.5 M40.9,49.1h2.6 M44.5,47.3v3.1 M44.5,47.3l1.2,3.1 M46.9,47.3l-1.2,3.1 M46.9,47.3
			v3.1 M47.9,47.3l2.1,3.1 M49.9,47.3l-2.1,3.1 M50.9,49.1h2.6 M54.5,47.3v3.1 M54.5,50.4h1.8 M57.3,47.3v3.1 M57.3,47.3h1.9
			 M57.3,48.8h1.2 M57.3,50.4h1.9 M60.1,47.3v3.1 M60.1,47.3h1l0.4,0.1l0.3,0.3l0.1,0.3l0.2,0.4v0.7L62,49.7L61.9,50l-0.3,0.3
			l-0.4,0.1h-1"/>
	</g>
	<g id="gge4_3">
		<path class="st14" d="M22.4,53l0.3-0.2l0.4-0.4v3.1"/>
	</g>
	<g id="gge42_3" class="st12">
		<path class="st13" d="M78.6,48.1l-0.2-0.3l-0.3-0.3l-0.3-0.1h-0.6L77,47.5l-0.3,0.3l-0.2,0.3l-0.1,0.4v0.7l0.1,0.4l0.2,0.3
			l0.3,0.3l0.3,0.1h0.6l0.3-0.1l0.3-0.3l0.2-0.3 M79.6,47.3v3.1 M81.6,47.3v3.1 M79.6,48.8h2.1 M82.6,47.3v3.1 M82.6,47.3h1.9
			 M82.6,48.8h1.2 M82.6,50.4h1.9 M85.5,47.3v3.1 M85.5,47.3h1.3l0.4,0.1l0.1,0.2l0.1,0.3v0.3l-0.1,0.3l-0.1,0.1l-0.4,0.1h-1.3
			 M86.5,48.8l1,1.6 M88.5,47.3v3.1 M88.5,47.3h1.3l0.4,0.1l0.1,0.2l0.2,0.3v0.3l-0.2,0.3l-0.1,0.1l-0.4,0.1h-1.3 M89.6,48.8l1,1.6
			 M91.6,47.3l1.2,1.5v1.6 M93.9,47.3l-1.2,1.5 M94.9,49.1h2.6 M98.5,47.3v3.1 M98.5,47.3l1.2,3.1 M100.9,47.3l-1.2,3.1 M100.9,47.3
			v3.1 M101.9,47.3l2.1,3.1 M103.9,47.3l-2.1,3.1 M104.9,49.1h2.6 M108.5,47.3v3.1 M108.5,50.4h1.8 M111.3,47.3v3.1 M111.3,47.3h1.9
			 M111.3,48.8h1.2 M111.3,50.4h1.9 M114.1,47.3v3.1 M114.1,47.3h1l0.4,0.1l0.3,0.3l0.1,0.3l0.2,0.4v0.7l-0.2,0.4l-0.1,0.3l-0.3,0.3
			l-0.4,0.1h-1"/>
	</g>
	<g id="gge44_3">
		<path class="st14" d="M76.5,53.1V53l0.2-0.3l0.1-0.2l0.3-0.1h0.6l0.3,0.1l0.1,0.2l0.2,0.3v0.3l-0.2,0.3L77.9,54l-1.5,1.5h2.1"/>
	</g>
	<g id="gge82_3" class="st12">
		<path class="st13" d="M24.6,129.1l-0.2-0.3l-0.3-0.3l-0.3-0.1h-0.6l-0.3,0.1l-0.3,0.3l-0.2,0.3l-0.1,0.4v0.7l0.1,0.4l0.2,0.3
			l0.3,0.3l0.3,0.1h0.6l0.3-0.1l0.3-0.3l0.2-0.3 M25.6,128.3v3.1 M27.6,128.3v3.1 M25.6,129.8h2.1 M28.6,128.3v3.1 M28.6,128.3h1.9
			 M28.6,129.8h1.2 M28.6,131.4h1.9 M31.5,128.3v3.1 M31.5,128.3h1.3l0.4,0.1l0.1,0.2l0.1,0.3v0.3l-0.1,0.3l-0.1,0.1l-0.4,0.1h-1.3
			 M32.5,129.8l1,1.6 M34.5,128.3v3.1 M34.5,128.3h1.3l0.4,0.1l0.1,0.2l0.2,0.3v0.3l-0.2,0.3l-0.1,0.1l-0.4,0.1h-1.3 M35.6,129.8
			l1,1.6 M37.6,128.3l1.2,1.5v1.6 M39.9,128.3l-1.2,1.5 M40.9,130.1h2.6 M44.5,128.3v3.1 M44.5,128.3l1.2,3.1 M46.9,128.3l-1.2,3.1
			 M46.9,128.3v3.1 M47.9,128.3l2.1,3.1 M49.9,128.3l-2.1,3.1 M50.9,130.1h2.6 M54.5,128.3v3.1 M54.5,131.4h1.8 M57.3,128.3v3.1
			 M57.3,128.3h1.9 M57.3,129.8h1.2 M57.3,131.4h1.9 M60.1,128.3v3.1 M60.1,128.3h1l0.4,0.1l0.3,0.3l0.1,0.3l0.2,0.4v0.7l-0.2,0.4
			l-0.1,0.3l-0.3,0.3l-0.4,0.1h-1"/>
	</g>
	<g id="gge84_3">
		<path class="st14" d="M22.7,133.4h1.6l-0.9,1.2h0.4l0.3,0.1l0.2,0.1l0.1,0.4v0.3l-0.1,0.4l-0.3,0.3l-0.4,0.1h-0.4l-0.4-0.1
			l-0.2-0.1l-0.1-0.3"/>
	</g>
	<g id="gge122_3" class="st12">
		<path class="st13" d="M78.6,129.1l-0.2-0.3l-0.3-0.3l-0.3-0.1h-0.6l-0.3,0.1l-0.3,0.3l-0.2,0.3l-0.1,0.4v0.7l0.1,0.4l0.2,0.3
			l0.3,0.3l0.3,0.1h0.6l0.3-0.1l0.3-0.3l0.2-0.3 M79.6,128.3v3.1 M81.6,128.3v3.1 M79.6,129.8h2.1 M82.6,128.3v3.1 M82.6,128.3h1.9
			 M82.6,129.8h1.2 M82.6,131.4h1.9 M85.5,128.3v3.1 M85.5,128.3h1.3l0.4,0.1l0.1,0.2l0.1,0.3v0.3l-0.1,0.3l-0.1,0.1l-0.4,0.1h-1.3
			 M86.5,129.8l1,1.6 M88.5,128.3v3.1 M88.5,128.3h1.3l0.4,0.1l0.1,0.2l0.2,0.3v0.3l-0.2,0.3l-0.1,0.1l-0.4,0.1h-1.3 M89.6,129.8
			l1,1.6 M91.6,128.3l1.2,1.5v1.6 M93.9,128.3l-1.2,1.5 M94.9,130.1h2.6 M98.5,128.3v3.1 M98.5,128.3l1.2,3.1 M100.9,128.3l-1.2,3.1
			 M100.9,128.3v3.1 M101.9,128.3l2.1,3.1 M103.9,128.3l-2.1,3.1 M104.9,130.1h2.6 M108.5,128.3v3.1 M108.5,131.4h1.8 M111.3,128.3
			v3.1 M111.3,128.3h1.9 M111.3,129.8h1.2 M111.3,131.4h1.9 M114.1,128.3v3.1 M114.1,128.3h1l0.4,0.1l0.3,0.3l0.1,0.3l0.2,0.4v0.7
			l-0.2,0.4l-0.1,0.3l-0.3,0.3l-0.4,0.1h-1"/>
	</g>
	<g id="gge124_3">
		<path class="st14" d="M77.9,133.4l-1.5,2.1h2.2 M77.9,133.4v3.1"/>
	</g>
	<g id="gge162_3" class="st12">
		<path class="st13" d="M132.6,129.1l-0.2-0.3l-0.3-0.3l-0.3-0.1h-0.6l-0.3,0.1l-0.3,0.3l-0.2,0.3l-0.1,0.4v0.7l0.1,0.4l0.2,0.3
			l0.3,0.3l0.3,0.1h0.6l0.3-0.1l0.3-0.3l0.2-0.3 M133.6,128.3v3.1 M135.6,128.3v3.1 M133.6,129.8h2.1 M136.6,128.3v3.1 M136.6,128.3
			h1.9 M136.6,129.8h1.2 M136.6,131.4h1.9 M139.5,128.3v3.1 M139.5,128.3h1.3l0.4,0.1l0.1,0.2l0.1,0.3v0.3l-0.1,0.3l-0.1,0.1
			l-0.4,0.1h-1.3 M140.5,129.8l1,1.6 M142.5,128.3v3.1 M142.5,128.3h1.3l0.4,0.1l0.1,0.2l0.2,0.3v0.3l-0.2,0.3l-0.1,0.1l-0.4,0.1
			h-1.3 M143.6,129.8l1,1.6 M145.6,128.3l1.2,1.5v1.6 M147.9,128.3l-1.2,1.5 M148.9,130.1h2.6 M152.5,128.3v3.1 M152.5,128.3
			l1.2,3.1 M154.9,128.3l-1.2,3.1 M154.9,128.3v3.1 M155.9,128.3l2.1,3.1 M157.9,128.3l-2.1,3.1 M158.9,130.1h2.6 M162.5,128.3v3.1
			 M162.5,131.4h1.8 M165.3,128.3v3.1 M165.3,128.3h1.9 M165.3,129.8h1.2 M165.3,131.4h1.9 M168.1,128.3v3.1 M168.1,128.3h1l0.4,0.1
			l0.3,0.3l0.1,0.3l0.2,0.4v0.7l-0.2,0.4l-0.1,0.3l-0.3,0.3l-0.4,0.1h-1"/>
	</g>
	<g id="gge164_3">
		<path class="st14" d="M132.2,133.4h-1.5l-0.2,1.3l0.2-0.1l0.4-0.2h0.4l0.4,0.2l0.3,0.3l0.1,0.4v0.3l-0.1,0.4l-0.3,0.3l-0.4,0.1
			h-0.4l-0.4-0.1l-0.2-0.1l-0.1-0.3"/>
	</g>
	<g id="gge202_3" class="st12">
		<path class="st13" d="M186.6,129.1l-0.2-0.3l-0.3-0.3l-0.3-0.1h-0.6l-0.3,0.1l-0.3,0.3l-0.2,0.3l-0.1,0.4v0.7l0.1,0.4l0.2,0.3
			l0.3,0.3l0.3,0.1h0.6l0.3-0.1l0.3-0.3l0.2-0.3 M187.6,128.3v3.1 M189.6,128.3v3.1 M187.6,129.8h2.1 M190.6,128.3v3.1 M190.6,128.3
			h1.9 M190.6,129.8h1.2 M190.6,131.4h1.9 M193.5,128.3v3.1 M193.5,128.3h1.3l0.4,0.1l0.1,0.2l0.1,0.3v0.3l-0.1,0.3l-0.1,0.1
			l-0.4,0.1h-1.3 M194.5,129.8l1,1.6 M196.5,128.3v3.1 M196.5,128.3h1.3l0.4,0.1l0.1,0.2l0.2,0.3v0.3l-0.2,0.3l-0.1,0.1l-0.4,0.1
			h-1.3 M197.6,129.8l1,1.6 M199.6,128.3l1.2,1.5v1.6 M201.9,128.3l-1.2,1.5 M202.9,130.1h2.6 M206.5,128.3v3.1 M206.5,128.3
			l1.2,3.1 M208.9,128.3l-1.2,3.1 M208.9,128.3v3.1 M209.9,128.3l2.1,3.1 M211.9,128.3l-2.1,3.1 M212.9,130.1h2.6 M216.5,128.3v3.1
			 M216.5,131.4h1.8 M219.3,128.3v3.1 M219.3,128.3h1.9 M219.3,129.8h1.2 M219.3,131.4h1.9 M222.1,128.3v3.1 M222.1,128.3h1l0.4,0.1
			l0.3,0.3l0.1,0.3l0.2,0.4v0.7l-0.2,0.4l-0.1,0.3l-0.3,0.3l-0.4,0.1h-1"/>
	</g>
	<g id="gge204_3">
		<path class="st14" d="M186.2,133.8l-0.1-0.3l-0.4-0.1h-0.3l-0.4,0.1l-0.3,0.4l-0.1,0.7v0.7l0.1,0.6l0.3,0.3l0.4,0.1h0.1l0.4-0.1
			l0.3-0.3l0.2-0.4v-0.2l-0.2-0.4l-0.3-0.3l-0.4-0.1h-0.1l-0.4,0.1l-0.3,0.3l-0.1,0.4"/>
	</g>
	<g id="gge242_3" class="st12">
		<path class="st13" d="M24.6,183.1l-0.2-0.3l-0.3-0.3l-0.3-0.1h-0.6l-0.3,0.1l-0.3,0.3l-0.2,0.3l-0.1,0.4v0.7l0.1,0.4l0.2,0.3
			l0.3,0.3l0.3,0.1h0.6l0.3-0.1l0.3-0.3l0.2-0.3 M25.6,182.3v3.1 M27.6,182.3v3.1 M25.6,183.8h2.1 M28.6,182.3v3.1 M28.6,182.3h1.9
			 M28.6,183.8h1.2 M28.6,185.4h1.9 M31.5,182.3v3.1 M31.5,182.3h1.3l0.4,0.1l0.1,0.2l0.1,0.3v0.3l-0.1,0.3l-0.1,0.1l-0.4,0.1h-1.3
			 M32.5,183.8l1,1.6 M34.5,182.3v3.1 M34.5,182.3h1.3l0.4,0.1l0.1,0.2l0.2,0.3v0.3l-0.2,0.3l-0.1,0.1l-0.4,0.1h-1.3 M35.6,183.8
			l1,1.6 M37.6,182.3l1.2,1.5v1.6 M39.9,182.3l-1.2,1.5 M40.9,184.1h2.6 M44.5,182.3v3.1 M44.5,182.3l1.2,3.1 M46.9,182.3l-1.2,3.1
			 M46.9,182.3v3.1 M47.9,182.3l2.1,3.1 M49.9,182.3l-2.1,3.1 M50.9,184.1h2.6 M54.5,182.3v3.1 M54.5,185.4h1.8 M57.3,182.3v3.1
			 M57.3,182.3h1.9 M57.3,183.8h1.2 M57.3,185.4h1.9 M60.1,182.3v3.1 M60.1,182.3h1l0.4,0.1l0.3,0.3l0.1,0.3l0.2,0.4v0.7l-0.2,0.4
			l-0.1,0.3l-0.3,0.3l-0.4,0.1h-1"/>
	</g>
	<g id="gge244_3">
		<path class="st14" d="M24.5,187.4l-1.5,3.1 M22.4,187.4h2.1"/>
	</g>
	<g id="gge282_3" class="st12">
		<path class="st13" d="M78.6,183.1l-0.2-0.3l-0.3-0.3l-0.3-0.1h-0.6l-0.3,0.1l-0.3,0.3l-0.2,0.3l-0.1,0.4v0.7l0.1,0.4l0.2,0.3
			l0.3,0.3l0.3,0.1h0.6l0.3-0.1l0.3-0.3l0.2-0.3 M79.6,182.3v3.1 M81.6,182.3v3.1 M79.6,183.8h2.1 M82.6,182.3v3.1 M82.6,182.3h1.9
			 M82.6,183.8h1.2 M82.6,185.4h1.9 M85.5,182.3v3.1 M85.5,182.3h1.3l0.4,0.1l0.1,0.2l0.1,0.3v0.3l-0.1,0.3l-0.1,0.1l-0.4,0.1h-1.3
			 M86.5,183.8l1,1.6 M88.5,182.3v3.1 M88.5,182.3h1.3l0.4,0.1l0.1,0.2l0.2,0.3v0.3l-0.2,0.3l-0.1,0.1l-0.4,0.1h-1.3 M89.6,183.8
			l1,1.6 M91.6,182.3l1.2,1.5v1.6 M93.9,182.3l-1.2,1.5 M94.9,184.1h2.6 M98.5,182.3v3.1 M98.5,182.3l1.2,3.1 M100.9,182.3l-1.2,3.1
			 M100.9,182.3v3.1 M101.9,182.3l2.1,3.1 M103.9,182.3l-2.1,3.1 M104.9,184.1h2.6 M108.5,182.3v3.1 M108.5,185.4h1.8 M111.3,182.3
			v3.1 M111.3,182.3h1.9 M111.3,183.8h1.2 M111.3,185.4h1.9 M114.1,182.3v3.1 M114.1,182.3h1l0.4,0.1l0.3,0.3l0.1,0.3l0.2,0.4v0.7
			l-0.2,0.4l-0.1,0.3l-0.3,0.3l-0.4,0.1h-1"/>
	</g>
	<g id="gge284_3">
		<path class="st14" d="M77.1,187.4l-0.4,0.1l-0.2,0.3v0.3l0.2,0.3l0.3,0.2l0.6,0.1l0.4,0.1l0.3,0.3l0.1,0.3v0.4l-0.1,0.3l-0.2,0.1
			l-0.4,0.1h-0.6l-0.4-0.1l-0.2-0.1l-0.1-0.3v-0.4l0.1-0.3l0.3-0.3l0.4-0.1l0.6-0.1l0.3-0.2l0.2-0.3v-0.3l-0.2-0.3l-0.4-0.1H77.1"/>
	</g>
	<g id="gge322_3" class="st12">
		<path class="st13" d="M132.6,183.1l-0.2-0.3l-0.3-0.3l-0.3-0.1h-0.6l-0.3,0.1l-0.3,0.3l-0.2,0.3l-0.1,0.4v0.7l0.1,0.4l0.2,0.3
			l0.3,0.3l0.3,0.1h0.6l0.3-0.1l0.3-0.3l0.2-0.3 M133.6,182.3v3.1 M135.6,182.3v3.1 M133.6,183.8h2.1 M136.6,182.3v3.1 M136.6,182.3
			h1.9 M136.6,183.8h1.2 M136.6,185.4h1.9 M139.5,182.3v3.1 M139.5,182.3h1.3l0.4,0.1l0.1,0.2l0.1,0.3v0.3l-0.1,0.3l-0.1,0.1
			l-0.4,0.1h-1.3 M140.5,183.8l1,1.6 M142.5,182.3v3.1 M142.5,182.3h1.3l0.4,0.1l0.1,0.2l0.2,0.3v0.3l-0.2,0.3l-0.1,0.1l-0.4,0.1
			h-1.3 M143.6,183.8l1,1.6 M145.6,182.3l1.2,1.5v1.6 M147.9,182.3l-1.2,1.5 M148.9,184.1h2.6 M152.5,182.3v3.1 M152.5,182.3
			l1.2,3.1 M154.9,182.3l-1.2,3.1 M154.9,182.3v3.1 M155.9,182.3l2.1,3.1 M157.9,182.3l-2.1,3.1 M158.9,184.1h2.6 M162.5,182.3v3.1
			 M162.5,185.4h1.8 M165.3,182.3v3.1 M165.3,182.3h1.9 M165.3,183.8h1.2 M165.3,185.4h1.9 M168.1,182.3v3.1 M168.1,182.3h1l0.4,0.1
			l0.3,0.3l0.1,0.3l0.2,0.4v0.7l-0.2,0.4l-0.1,0.3l-0.3,0.3l-0.4,0.1h-1"/>
	</g>
	<g id="gge324_3">
		<path class="st14" d="M132.3,188.4l-0.2,0.4l-0.3,0.3l-0.4,0.2h-0.1l-0.4-0.2l-0.3-0.3l-0.1-0.4v-0.1l0.1-0.4l0.3-0.3l0.4-0.1h0.1
			l0.4,0.1l0.3,0.3L132.3,188.4v0.7l-0.2,0.7l-0.3,0.4l-0.4,0.1h-0.3l-0.4-0.1l-0.2-0.3"/>
	</g>
	<g id="gge362_3" class="st12">
		<path class="st13" d="M186.6,183.1l-0.2-0.3l-0.3-0.3l-0.3-0.1h-0.6l-0.3,0.1l-0.3,0.3l-0.2,0.3l-0.1,0.4v0.7l0.1,0.4l0.2,0.3
			l0.3,0.3l0.3,0.1h0.6l0.3-0.1l0.3-0.3l0.2-0.3 M187.6,182.3v3.1 M189.6,182.3v3.1 M187.6,183.8h2.1 M190.6,182.3v3.1 M190.6,182.3
			h1.9 M190.6,183.8h1.2 M190.6,185.4h1.9 M193.5,182.3v3.1 M193.5,182.3h1.3l0.4,0.1l0.1,0.2l0.1,0.3v0.3l-0.1,0.3l-0.1,0.1
			l-0.4,0.1h-1.3 M194.5,183.8l1,1.6 M196.5,182.3v3.1 M196.5,182.3h1.3l0.4,0.1l0.1,0.2l0.2,0.3v0.3l-0.2,0.3l-0.1,0.1l-0.4,0.1
			h-1.3 M197.6,183.8l1,1.6 M199.6,182.3l1.2,1.5v1.6 M201.9,182.3l-1.2,1.5 M202.9,184.1h2.6 M206.5,182.3v3.1 M206.5,182.3
			l1.2,3.1 M208.9,182.3l-1.2,3.1 M208.9,182.3v3.1 M209.9,182.3l2.1,3.1 M211.9,182.3l-2.1,3.1 M212.9,184.1h2.6 M216.5,182.3v3.1
			 M216.5,185.4h1.8 M219.3,182.3v3.1 M219.3,182.3h1.9 M219.3,183.8h1.2 M219.3,185.4h1.9 M222.1,182.3v3.1 M222.1,182.3h1l0.4,0.1
			l0.3,0.3l0.1,0.3l0.2,0.4v0.7l-0.2,0.4l-0.1,0.3l-0.3,0.3l-0.4,0.1h-1"/>
	</g>
	<g id="gge364_3">
		<path class="st14" d="M184.4,188l0.3-0.2l0.4-0.4v3.1 M187,187.4l-0.4,0.1l-0.3,0.4l-0.2,0.7v0.4l0.2,0.7l0.3,0.4l0.4,0.1h0.3
			l0.4-0.1l0.3-0.4l0.2-0.7v-0.4L188,188l-0.3-0.4l-0.4-0.1H187"/>
	</g>
	<g id="gge635_3" class="st12">
		<path class="st13" d="M174.4,60.3v3.1 M174.4,60.3h1.3l0.4,0.1l0.2,0.2l0.1,0.3v0.4l-0.1,0.3l-0.2,0.1l-0.4,0.2h-1.3 M179.2,61.3
			v2.1 M179.2,61.8l-0.3-0.3l-0.3-0.2h-0.4l-0.3,0.2l-0.3,0.3l-0.2,0.4v0.3l0.2,0.4l0.3,0.3l0.3,0.1h0.4l0.3-0.1l0.3-0.3 M182,61.3
			v2.4l-0.1,0.4l-0.2,0.1l-0.3,0.2h-0.4l-0.3-0.2 M182,61.8l-0.3-0.3l-0.3-0.2h-0.4l-0.3,0.2l-0.3,0.3l-0.1,0.4v0.3l0.1,0.4l0.3,0.3
			l0.3,0.1h0.4l0.3-0.1l0.3-0.3 M182.9,62.2h1.8v-0.3l-0.2-0.3l-0.1-0.1l-0.3-0.2h-0.4l-0.3,0.2l-0.3,0.3L182.9,62.2v0.3l0.2,0.4
			l0.3,0.3l0.3,0.1h0.4l0.3-0.1l0.3-0.3 M187.9,60.3v3.1 M187.9,63.4h1.8 M190.7,60.3v3.1 M190.7,60.3h1.9 M190.7,61.8h1.2
			 M190.7,63.4h1.9 M193.6,60.3v3.1 M193.6,60.3h1l0.4,0.1l0.3,0.3l0.1,0.3l0.1,0.4v0.7l-0.1,0.4l-0.1,0.3l-0.3,0.3l-0.4,0.1h-1"/>
	</g>
	<g id="gge637_3">
		<path class="st14" d="M174.4,65.3v3.1 M174.4,65.3h1l0.4,0.1l0.3,0.3l0.2,0.3l0.1,0.4v0.7l-0.1,0.4l-0.2,0.3l-0.3,0.3l-0.4,0.1h-1
			 M177.6,66.1v-0.1l0.1-0.3l0.2-0.2l0.3-0.1h0.6l0.3,0.1l0.2,0.2l0.1,0.3v0.3l-0.1,0.3l-0.3,0.4l-1.5,1.5h2.1"/>
	</g>
	<g id="gge640_3">
		<path class="st15" d="M173.3,83.9v0.8 M173.3,83.9h0.3l0.1,0l0,0l0,0.1v0.1l0,0.1l0,0l-0.1,0h-0.3 M174.1,83.9v0.8 M174.1,83.9
			l0.3,0.8 M174.7,83.9l-0.3,0.8 M174.7,83.9v0.8 M174.9,84.1L174.9,84.1l0.2-0.2v0.8 M175.9,84.2l0,0.1l-0.1,0.1l-0.1,0h0l-0.1,0
			l-0.1-0.1l0-0.1v0l0-0.1l0.1-0.1l0.1,0h0l0.1,0l0.1,0.1L175.9,84.2v0.2l0,0.2l-0.1,0.1l-0.1,0h-0.1l-0.1,0l0-0.1"/>
	</g>
	<g id="gge642_3">
		<path class="st15" d="M179.4,72.3v1.1 M179.4,72.3h0.5l0.2,0.1l0.1,0.1l0.1,0.1v0.1l-0.1,0.1l-0.1,0.1l-0.2,0.1 M179.4,72.8h0.5
			l0.2,0.1l0.1,0.1l0.1,0.1v0.2l-0.1,0.1l-0.1,0.1l-0.2,0.1h-0.5"/>
	</g>
	<g id="gge644_3">
		<path class="st15" d="M171.6,72.5l-0.1-0.1l-0.1-0.1l-0.1-0.1h-0.2l-0.1,0.1l-0.1,0.1l-0.1,0.1l-0.1,0.2V73l0.1,0.2l0.1,0.1
			l0.1,0.1l0.1,0.1h0.2l0.1-0.1l0.1-0.1l0.1-0.1 M172.2,72.6l-0.1,0.1l-0.1,0.1L172,73v0.1l0.1,0.2l0.1,0.1l0.1,0.1h0.2l0.1-0.1
			l0.1-0.1l0.1-0.2V73l-0.1-0.2l-0.1-0.1l-0.1-0.1H172.2 M173,72.6v0.7 M173,72.8l0.2-0.2l0.1-0.1h0.2l0.1,0.1l0.1,0.2v0.5
			 M173.6,72.8l0.2-0.2l0.1-0.1h0.2l0.1,0.1l0.1,0.2v0.5"/>
	</g>
	<g id="gge646_3">
		<path class="st15" d="M168.6,72.3v1.1 M168.6,72.3h0.5l0.2,0.1l0.1,0.1l0.1,0.1v0.1l-0.1,0.1l-0.1,0.1l-0.2,0.1h-0.5 M169,72.8
			l0.4,0.6"/>
	</g>
	<g id="gge648_3">
		<path class="st15" d="M176.5,72.5l-0.1-0.1l-0.1-0.1l-0.1-0.1H176l-0.1,0.1l-0.1,0.1l-0.1,0.1l-0.1,0.2V73l0.1,0.2l0.1,0.1
			l0.1,0.1l0.1,0.1h0.2l0.1-0.1l0.1-0.1l0.1-0.1V73 M176.2,73h0.3"/>
	</g>
	<g id="gge672_3" class="st12">
		<path class="st13" d="M140.4,60.3v3.1 M140.4,60.3l1.2,3.1 M142.8,60.3l-1.2,3.1 M142.8,60.3v3.1 M144.5,61.3l-0.3,0.2l-0.3,0.3
			l-0.2,0.4v0.3l0.2,0.4l0.3,0.3l0.3,0.1h0.4l0.3-0.1l0.3-0.3l0.1-0.4v-0.3l-0.1-0.4l-0.3-0.3l-0.3-0.2H144.5 M148.4,60.3v3.1
			 M148.4,61.8l-0.3-0.3l-0.3-0.2h-0.4l-0.3,0.2l-0.3,0.3l-0.2,0.4v0.3l0.2,0.4l0.3,0.3l0.3,0.1h0.4l0.3-0.1l0.3-0.3 M149.4,62.2
			h1.8v-0.3l-0.1-0.3l-0.2-0.1l-0.3-0.2h-0.4l-0.3,0.2l-0.3,0.3L149.4,62.2v0.3l0.1,0.4l0.3,0.3l0.3,0.1h0.4l0.3-0.1l0.3-0.3
			 M154.4,60.3v3.1 M154.4,63.4h1.8 M157.1,60.3v3.1 M157.1,60.3h1.9 M157.1,61.8h1.2 M157.1,63.4h1.9 M160,60.3v3.1 M160,60.3h1
			l0.4,0.1l0.3,0.3l0.1,0.3l0.2,0.4v0.7l-0.2,0.4l-0.1,0.3l-0.3,0.3l-0.4,0.1h-1"/>
	</g>
	<g id="gge674_3">
		<path class="st14" d="M140.4,65.3v3.1 M140.4,65.3h1l0.4,0.1l0.3,0.3l0.2,0.3l0.1,0.4v0.7l-0.1,0.4l-0.2,0.3l-0.3,0.3l-0.4,0.1h-1
			 M143.4,65.9l0.3-0.2l0.4-0.4v3.1"/>
	</g>
	<g id="gge677_3">
		<path class="st15" d="M139.3,83.9v0.8 M139.3,83.9h0.3l0.1,0l0,0l0,0.1v0.1l0,0.1l0,0l-0.1,0h-0.3 M140.1,83.9v0.8 M140.1,83.9
			l0.3,0.8 M140.7,83.9l-0.3,0.8 M140.7,83.9v0.8 M140.9,84.1L140.9,84.1l0.2-0.2v0.8 M141.9,84.2l0,0.1l-0.1,0.1l-0.1,0h0l-0.1,0
			l-0.1-0.1l0-0.1v0l0-0.1l0.1-0.1l0.1,0h0l0.1,0l0.1,0.1L141.9,84.2v0.2l0,0.2l-0.1,0.1l-0.1,0h-0.1l-0.1,0l0-0.1"/>
	</g>
	<g id="gge679_3">
		<path class="st15" d="M145.4,72.3v1.1 M145.4,72.3h0.5l0.2,0.1l0.1,0.1l0.1,0.1v0.1l-0.1,0.1l-0.1,0.1l-0.2,0.1 M145.4,72.8h0.5
			l0.2,0.1l0.1,0.1l0.1,0.1v0.2l-0.1,0.1l-0.1,0.1l-0.2,0.1h-0.5"/>
	</g>
	<g id="gge681_3">
		<path class="st15" d="M137.6,72.5l-0.1-0.1l-0.1-0.1l-0.1-0.1h-0.2l-0.1,0.1l-0.1,0.1l-0.1,0.1l-0.1,0.2V73l0.1,0.2l0.1,0.1
			l0.1,0.1l0.1,0.1h0.2l0.1-0.1l0.1-0.1l0.1-0.1 M138.2,72.6l-0.1,0.1l-0.1,0.1L138,73v0.1l0.1,0.2l0.1,0.1l0.1,0.1h0.2l0.1-0.1
			l0.1-0.1l0.1-0.2V73l-0.1-0.2l-0.1-0.1l-0.1-0.1H138.2 M139,72.6v0.7 M139,72.8l0.2-0.2l0.1-0.1h0.2l0.1,0.1l0.1,0.2v0.5
			 M139.5,72.8l0.2-0.2l0.1-0.1h0.2l0.1,0.1l0.1,0.2v0.5"/>
	</g>
	<g id="gge683_3">
		<path class="st15" d="M134.6,72.3v1.1 M134.6,72.3h0.5l0.2,0.1l0.1,0.1l0.1,0.1v0.1l-0.1,0.1l-0.1,0.1l-0.2,0.1h-0.5 M134.9,72.8
			l0.4,0.6"/>
	</g>
	<g id="gge685_3">
		<path class="st15" d="M142.4,72.5l-0.1-0.1l-0.1-0.1l-0.1-0.1H142l-0.1,0.1l-0.1,0.1l-0.1,0.1l-0.1,0.2V73l0.1,0.2l0.1,0.1
			l0.1,0.1l0.1,0.1h0.2l0.1-0.1l0.1-0.1l0.1-0.1V73 M142.2,73h0.3"/>
	</g>
	<polyline id="gge6_3" class="st16" points="0.8,55.6 44,55.6 44,98.8 0.8,98.8 0.8,55.6 	"/>
	<polyline id="gge46_3" class="st16" points="54.8,55.6 98,55.6 98,98.8 54.8,98.8 54.8,55.6 	"/>
	<polyline id="gge86_3" class="st16" points="0.8,136.7 44,136.7 44,179.9 0.8,179.9 0.8,136.7 	"/>
	<polyline id="gge126_3" class="st16" points="54.8,136.7 98,136.7 98,179.9 54.8,179.9 54.8,136.7 	"/>
	<polyline id="gge166_3" class="st16" points="108.8,136.7 152,136.7 152,179.9 108.8,179.9 108.8,136.7 	"/>
	<polyline id="gge206_3" class="st16" points="162.8,136.7 206,136.7 206,179.9 162.8,179.9 162.8,136.7 	"/>
	<polyline id="gge246_3" class="st16" points="0.8,190.7 44,190.7 44,233.9 0.8,233.9 0.8,190.7 	"/>
	<polyline id="gge286_3" class="st16" points="54.8,190.7 98,190.7 98,233.9 54.8,233.9 54.8,190.7 	"/>
	<polyline id="gge326_3" class="st16" points="108.8,190.7 152,190.7 152,233.9 108.8,233.9 108.8,190.7 	"/>
	<polyline id="gge366_3" class="st16" points="162.8,190.7 206,190.7 206,233.9 162.8,233.9 162.8,190.7 	"/>
	<line id="gge639_3" class="st17" x1="166.9" y1="73.6" x2="166.9" y2="80.9"/>
	<line id="gge676_3" class="st17" x1="132.9" y1="73.6" x2="132.9" y2="80.9"/>
	<path id="gge650_3" class="st18" d="M166.9,80.9c2,4.1,7,5.9,11.2,3.8c4.1-2,5.9-7,3.8-11.2c-2-4.1-7-5.9-11.2-3.8
		c-1.7,0.8-3,2.2-3.8,3.8"/>
	<path id="gge687_3" class="st18" d="M132.9,80.9c2,4.1,7,5.9,11.2,3.8c4.1-2,5.9-7,3.8-11.2c-2-4.1-7-5.9-11.2-3.8
		c-1.7,0.8-3,2.2-3.8,3.8"/>
	<path id="gge1201" class="st19" d="M114.9,60.7l-1.2,5.5l1.2,2.8c0.7,1.5,1.3,2.7,1.3,2.7c0.1-0.1,0.6-1.3,1.3-2.8l1.2-2.7
		l-1.2-5.2c-0.6-2.9-1.2-5.3-1.3-5.5C116.1,55.3,115.6,57.6,114.9,60.7 M110.3,64.1l0,3.4l2.2,1.6c2.5,1.9,2.9,2.2,2.7,2
		c0-0.1-1.1-2.4-2.4-5.3c-1.3-2.8-2.4-5.1-2.4-5.2C110.3,60.7,110.3,62.2,110.3,64.1 M119.5,65.9c-1.3,2.8-2.3,5.1-2.3,5.2
		s1.1-0.7,2.4-1.7l2.4-1.8v-3.4c0-1.8,0-3.4,0-3.4S120.8,63.1,119.5,65.9 M107.2,68c1.4,1.9,2.7,3.7,2.9,3.9l0.3,0.4l2.6,0l2.6,0
		l-5.2-3.7c-2.9-2-5.3-3.8-5.4-3.9S105.8,66.1,107.2,68 M122.2,68.4c-2.9,2.1-5.3,3.8-5.3,3.8c-0.1,0.1,1.1,0.1,2.5,0.1l2.6,0
		l2.6-3.5c2.4-3.3,3-4.1,2.9-4.1C127.5,64.6,125.1,66.3,122.2,68.4 M108.7,74.5l1.4,1.3h6.2h6.2l1.4-1.3l1.4-1.3h-8.9h-8.9
		L108.7,74.5 M107.8,76.5c0.3,0.3,0.8,0.9,1.3,1.3l0.8,0.8h6.2h6.2l1.4-1.3L125,76h-8.9h-8.9L107.8,76.5 M108.6,80.2l1.3,1.3h6.2
		h6.2l1.3-1.3l1.3-1.3h-8.8h-8.8L108.6,80.2 M108.6,83l1.3,1.3h6.2h6.2l1.3-1.3l1.3-1.3h-8.8h-8.8L108.6,83 M108.6,85.9l1.3,1.3
		l6.3,0l6.3,0l1.2-1.2l1.2-1.2h-8.8h-8.8L108.6,85.9 M109.8,89.9l2.5,2.4h3.9h3.9l2.4-2.3c1.3-1.3,2.4-2.4,2.4-2.4
		c0-0.1-3.9-0.1-8.8-0.1h-8.8L109.8,89.9"/>
</g>
<g id="bottomSilkLayer">
	<g id="gge402_4" class="st12">
		<path class="st13" d="M167.1,88.3l1.2,3.1 M167.1,88.3l-1.2,3.1 M167.9,90.3h-1.5 M164,88.3v3.1 M165,88.3h-2.1 M162,88.3v3.1
			 M162,88.3l-1.2,3.1 M159.6,88.3l1.2,3.1 M159.6,88.3v3.1 M158.6,88.3v3.1 M158.6,88.3h-1.9 M158.6,89.7h-1.2 M158.6,91.3h-1.9
			 M153.5,89l0.2-0.3l0.3-0.3l0.3-0.1h0.6l0.3,0.1l0.3,0.3l0.2,0.3l0.1,0.4v0.7l-0.1,0.4l-0.2,0.3l-0.3,0.3l-0.3,0.1h-0.6l-0.3-0.1
			l-0.3-0.3l-0.2-0.3v-0.4 M154.3,90.2h-0.7 M151.4,88.3l1.2,3.1 M151.4,88.3l-1.2,3.1 M152.1,90.3h-1.5 M148.9,88.3h-1.6l0.9,1.2
			h-0.4l-0.3,0.1l-0.2,0.1l-0.1,0.4v0.3l0.1,0.4l0.3,0.3l0.4,0.1h0.4l0.4-0.1l0.2-0.1l0.1-0.3 M146.1,89v-0.1l-0.1-0.3l-0.2-0.2
			l-0.3-0.1h-0.6l-0.3,0.1l-0.2,0.2l-0.1,0.3v0.3l0.1,0.3l0.3,0.4l1.5,1.5h-2.1 M143.2,88.3v2.2l-0.1,0.4l-0.3,0.3l-0.4,0.1H142
			l-0.4-0.1l-0.3-0.3l-0.1-0.4v-2.2 M138.7,88.3l1.5,2.1h-2.2 M138.7,88.3v3.1 M137,90h-2.6 M132.2,88.3l1.2,3.1 M132.2,88.3
			l-1.2,3.1 M132.9,90.3h-1.5 M130,88.3v2.2l-0.2,0.4l-0.3,0.3l-0.4,0.1h-0.3l-0.4-0.1l-0.3-0.3l-0.2-0.4v-2.2"/>
	</g>
	<g id="gge709_4" class="st12">
		<path class="st13" d="M38.8,119.8l-3.1,1.5 M38.8,121.9v-2.1 M38.8,117.1v1.5l-1.3,0.1l0.1-0.1l0.2-0.4v-0.4l-0.2-0.4l-0.3-0.3
			l-0.4-0.2h-0.3l-0.4,0.2l-0.3,0.3l-0.1,0.4v0.4l0.1,0.4l0.1,0.1l0.3,0.2"/>
	</g>
	<g id="gge732_4" class="st12">
		<path class="st13" d="M53.2,119.8l-3.1,1.5 M53.2,121.9v-2.1 M53.2,117.1v1.5l-1.3,0.1l0.1-0.1l0.2-0.4v-0.4l-0.2-0.4l-0.3-0.3
			l-0.4-0.2H51l-0.4,0.2l-0.3,0.3l-0.1,0.4v0.4l0.1,0.4l0.1,0.1l0.3,0.2"/>
	</g>
	<g id="gge755_4" class="st12">
		<path class="st13" d="M67.6,119.8l-3.1,1.5 M67.6,121.9v-2.1 M67.6,117.1v1.5l-1.3,0.1l0.1-0.1l0.2-0.4v-0.4l-0.2-0.4l-0.3-0.3
			l-0.4-0.2h-0.3l-0.4,0.2l-0.3,0.3l-0.1,0.4v0.4l0.1,0.4l0.1,0.1l0.3,0.2"/>
	</g>
	<g id="gge778_4" class="st12">
		<path class="st13" d="M82,119.8l-3.1,1.5 M82,121.9v-2.1 M82,117.1v1.5l-1.3,0.1l0.1-0.1l0.2-0.4v-0.4l-0.2-0.4l-0.3-0.3l-0.4-0.2
			h-0.3l-0.4,0.2l-0.3,0.3l-0.1,0.4v0.4l0.1,0.4l0.1,0.1l0.3,0.2"/>
	</g>
	<g id="gge801_4" class="st12">
		<path class="st13" d="M96.4,119.8l-3.1,1.5 M96.4,121.9v-2.1 M96.4,117.1v1.5l-1.3,0.1l0.1-0.1l0.2-0.4v-0.4l-0.2-0.4l-0.3-0.3
			l-0.4-0.2h-0.3l-0.4,0.2l-0.3,0.3l-0.1,0.4v0.4l0.1,0.4l0.1,0.1l0.3,0.2"/>
	</g>
	<g id="gge824_4" class="st12">
		<path class="st13" d="M110.8,119.8l-3.1,1.5 M110.8,121.9v-2.1 M110.8,117.1v1.5l-1.3,0.1l0.1-0.1l0.2-0.4v-0.4l-0.2-0.4l-0.3-0.3
			l-0.4-0.2h-0.3l-0.4,0.2l-0.3,0.3l-0.1,0.4v0.4l0.1,0.4l0.1,0.1l0.3,0.2"/>
	</g>
	<g id="gge847_4" class="st12">
		<path class="st13" d="M125.2,119.8l-3.1,1.5 M125.2,121.9v-2.1 M125.2,117.1v1.5l-1.3,0.1l0.1-0.1l0.2-0.4v-0.4l-0.2-0.4l-0.3-0.3
			l-0.4-0.2H123l-0.4,0.2l-0.3,0.3l-0.1,0.4v0.4l0.1,0.4l0.1,0.1l0.3,0.2"/>
	</g>
	<g id="gge870_4" class="st12">
		<path class="st13" d="M139.6,119.8l-3.1,1.5 M139.6,121.9v-2.1 M139.6,117.1v1.5l-1.3,0.1l0.1-0.1l0.2-0.4v-0.4l-0.2-0.4l-0.3-0.3
			l-0.4-0.2h-0.3l-0.4,0.2l-0.3,0.3l-0.1,0.4v0.4l0.1,0.4l0.1,0.1l0.3,0.2"/>
	</g>
	<g id="gge893_4" class="st12">
		<path class="st13" d="M24.4,119.8l-3.1,1.5 M24.4,121.9v-2.1 M24.4,117.1v1.5l-1.3,0.1l0.1-0.1l0.2-0.4v-0.4l-0.2-0.4l-0.3-0.3
			l-0.4-0.2h-0.3l-0.4,0.2l-0.3,0.3l-0.1,0.4v0.4l0.1,0.4l0.1,0.1l0.3,0.2"/>
	</g>
	<g id="gge916_4" class="st12">
		<path class="st13" d="M10,119.8l-3.1,1.5 M10,121.9v-2.1 M10,117.1v1.5l-1.3,0.1l0.1-0.1l0.2-0.4v-0.4l-0.2-0.4l-0.3-0.3l-0.4-0.2
			H7.8l-0.4,0.2L7,117.2l-0.1,0.4v0.4l0.1,0.4l0.1,0.1l0.3,0.2"/>
	</g>
</g>
<g>
	<circle cx="140.3" cy="58.3" r="2.1"/>
	<circle cx="168.6" cy="58.3" r="2.1"/>
	<circle cx="182.8" cy="58.3" r="2.1"/>
	<circle cx="154.4" cy="58.3" r="2.1"/>
	<circle cx="27.3" cy="127.2" r="1.3"/>
	<circle cx="27.3" cy="105.6" r="1.3"/>
	<circle cx="41.7" cy="127.2" r="1.3"/>
	<circle cx="41.7" cy="105.6" r="1.3"/>
	<circle cx="56.1" cy="127.2" r="1.3"/>
	<circle cx="56.1" cy="105.6" r="1.3"/>
	<circle cx="70.5" cy="127.2" r="1.3"/>
	<circle cx="70.5" cy="105.6" r="1.3"/>
	<circle cx="84.9" cy="127.2" r="1.3"/>
	<circle cx="84.9" cy="105.6" r="1.3"/>
	<circle cx="99.3" cy="127.2" r="1.3"/>
	<circle cx="99.3" cy="105.6" r="1.3"/>
	<circle cx="113.7" cy="127.2" r="1.3"/>
	<circle cx="113.7" cy="105.6" r="1.3"/>
	<circle cx="128.1" cy="127.2" r="1.3"/>
	<circle cx="128.1" cy="105.6" r="1.3"/>
	<circle cx="12.9" cy="127.2" r="1.3"/>
	<circle cx="12.9" cy="105.6" r="1.3"/>
	<circle cx="-1.5" cy="127.2" r="1.3"/>
	<circle cx="-1.5" cy="105.6" r="1.3"/>
	<path d="M11.6,72.2c-1.2,0-2.2-1-2.2-2.2c0-1.2,1-2.2,2.2-2.2h0c1.2,0,2.2,1,2.2,2.2C13.8,71.2,12.8,72.2,11.6,72.2L11.6,72.2z"/>
	<path d="M29.6,65c-1.2,0-2.2-1-2.2-2.2s1-2.2,2.2-2.2h0c1.2,0,2.2,1,2.2,2.2S30.8,65,29.6,65L29.6,65z"/>
	<path d="M8,79.7c-1.3,0-2.4-1.1-2.4-2.4c0-1.3,1.1-2.4,2.4-2.4h0c1.3,0,2.4,1.1,2.4,2.4C10.4,78.6,9.4,79.7,8,79.7L8,79.7z"/>
	<path d="M36.8,79.7c-1.3,0-2.4-1.1-2.4-2.4c0-1.3,1.1-2.4,2.4-2.4h0c1.3,0,2.4,1.1,2.4,2.4C39.2,78.6,38.2,79.7,36.8,79.7
		L36.8,79.7z"/>
	<path d="M18.8,93.1c-0.8,0-1.4-0.6-1.4-1.4s0.6-1.4,1.4-1.4h0c0.8,0,1.4,0.6,1.4,1.4S19.6,93.1,18.8,93.1L18.8,93.1z"/>
	<path d="M26,93.1c-0.8,0-1.4-0.6-1.4-1.4s0.6-1.4,1.4-1.4h0c0.8,0,1.4,0.6,1.4,1.4S26.8,93.1,26,93.1L26,93.1z"/>
	<path d="M65.6,72.2c-1.2,0-2.2-1-2.2-2.2c0-1.2,1-2.2,2.2-2.2h0c1.2,0,2.2,1,2.2,2.2C67.8,71.2,66.8,72.2,65.6,72.2L65.6,72.2z"/>
	<path d="M83.6,65c-1.2,0-2.2-1-2.2-2.2s1-2.2,2.2-2.2h0c1.2,0,2.2,1,2.2,2.2S84.8,65,83.6,65L83.6,65z"/>
	<path d="M62,79.7c-1.3,0-2.4-1.1-2.4-2.4c0-1.3,1.1-2.4,2.4-2.4h0c1.3,0,2.4,1.1,2.4,2.4C64.4,78.6,63.4,79.7,62,79.7L62,79.7z"/>
	<path d="M90.8,79.7c-1.3,0-2.4-1.1-2.4-2.4c0-1.3,1.1-2.4,2.4-2.4h0c1.3,0,2.4,1.1,2.4,2.4C93.2,78.6,92.2,79.7,90.8,79.7
		L90.8,79.7z"/>
	<path d="M72.8,93.1c-0.8,0-1.4-0.6-1.4-1.4s0.6-1.4,1.4-1.4h0c0.8,0,1.4,0.6,1.4,1.4S73.6,93.1,72.8,93.1L72.8,93.1z"/>
	<path d="M80,93.1c-0.8,0-1.4-0.6-1.4-1.4s0.6-1.4,1.4-1.4h0c0.8,0,1.4,0.6,1.4,1.4S80.8,93.1,80,93.1L80,93.1z"/>
	<path d="M11.6,153.2c-1.2,0-2.2-1-2.2-2.2c0-1.2,1-2.2,2.2-2.2h0c1.2,0,2.2,1,2.2,2.2C13.8,152.2,12.8,153.2,11.6,153.2L11.6,153.2
		z"/>
	<path d="M29.6,146c-1.2,0-2.2-1-2.2-2.2c0-1.2,1-2.2,2.2-2.2h0c1.2,0,2.2,1,2.2,2.2C31.8,145,30.8,146,29.6,146L29.6,146z"/>
	<path d="M8,160.7c-1.3,0-2.4-1.1-2.4-2.4s1.1-2.4,2.4-2.4h0c1.3,0,2.4,1.1,2.4,2.4S9.4,160.7,8,160.7L8,160.7z"/>
	<path d="M36.8,160.7c-1.3,0-2.4-1.1-2.4-2.4s1.1-2.4,2.4-2.4h0c1.3,0,2.4,1.1,2.4,2.4S38.2,160.7,36.8,160.7L36.8,160.7z"/>
	<path d="M18.8,174.1c-0.8,0-1.4-0.6-1.4-1.4c0-0.8,0.6-1.4,1.4-1.4h0c0.8,0,1.4,0.6,1.4,1.4C20.3,173.4,19.6,174.1,18.8,174.1
		L18.8,174.1z"/>
	<path d="M26,174.1c-0.8,0-1.4-0.6-1.4-1.4c0-0.8,0.6-1.4,1.4-1.4h0c0.8,0,1.4,0.6,1.4,1.4C27.5,173.4,26.8,174.1,26,174.1L26,174.1
		z"/>
	<path d="M65.6,153.2c-1.2,0-2.2-1-2.2-2.2c0-1.2,1-2.2,2.2-2.2h0c1.2,0,2.2,1,2.2,2.2C67.8,152.2,66.8,153.2,65.6,153.2L65.6,153.2
		z"/>
	<path d="M83.6,146c-1.2,0-2.2-1-2.2-2.2c0-1.2,1-2.2,2.2-2.2h0c1.2,0,2.2,1,2.2,2.2C85.8,145,84.8,146,83.6,146L83.6,146z"/>
	<path d="M62,160.7c-1.3,0-2.4-1.1-2.4-2.4s1.1-2.4,2.4-2.4h0c1.3,0,2.4,1.1,2.4,2.4S63.4,160.7,62,160.7L62,160.7z"/>
	<path d="M90.8,160.7c-1.3,0-2.4-1.1-2.4-2.4s1.1-2.4,2.4-2.4h0c1.3,0,2.4,1.1,2.4,2.4S92.2,160.7,90.8,160.7L90.8,160.7z"/>
	<path d="M72.8,174.1c-0.8,0-1.4-0.6-1.4-1.4c0-0.8,0.6-1.4,1.4-1.4h0c0.8,0,1.4,0.6,1.4,1.4C74.3,173.4,73.6,174.1,72.8,174.1
		L72.8,174.1z"/>
	<path d="M80,174.1c-0.8,0-1.4-0.6-1.4-1.4c0-0.8,0.6-1.4,1.4-1.4h0c0.8,0,1.4,0.6,1.4,1.4C81.5,173.4,80.8,174.1,80,174.1L80,174.1
		z"/>
	<path d="M119.6,153.2c-1.2,0-2.2-1-2.2-2.2c0-1.2,1-2.2,2.2-2.2h0c1.2,0,2.2,1,2.2,2.2C121.8,152.2,120.8,153.2,119.6,153.2
		L119.6,153.2z"/>
	<path d="M137.6,146c-1.2,0-2.2-1-2.2-2.2c0-1.2,1-2.2,2.2-2.2h0c1.2,0,2.2,1,2.2,2.2C139.8,145,138.8,146,137.6,146L137.6,146z"/>
	<path d="M116,160.7c-1.3,0-2.4-1.1-2.4-2.4s1.1-2.4,2.4-2.4h0c1.3,0,2.4,1.1,2.4,2.4S117.4,160.7,116,160.7L116,160.7z"/>
	<path d="M144.8,160.7c-1.3,0-2.4-1.1-2.4-2.4s1.1-2.4,2.4-2.4h0c1.3,0,2.4,1.1,2.4,2.4S146.2,160.7,144.8,160.7L144.8,160.7z"/>
	<path d="M126.8,174.1c-0.8,0-1.4-0.6-1.4-1.4c0-0.8,0.6-1.4,1.4-1.4h0c0.8,0,1.4,0.6,1.4,1.4C128.3,173.4,127.6,174.1,126.8,174.1
		L126.8,174.1z"/>
	<path d="M134,174.1c-0.8,0-1.4-0.6-1.4-1.4c0-0.8,0.6-1.4,1.4-1.4h0c0.8,0,1.4,0.6,1.4,1.4C135.5,173.4,134.8,174.1,134,174.1
		L134,174.1z"/>
	<path d="M173.6,153.2c-1.2,0-2.2-1-2.2-2.2c0-1.2,1-2.2,2.2-2.2h0c1.2,0,2.2,1,2.2,2.2C175.8,152.2,174.8,153.2,173.6,153.2
		L173.6,153.2z"/>
	<path d="M191.6,146c-1.2,0-2.2-1-2.2-2.2c0-1.2,1-2.2,2.2-2.2h0c1.2,0,2.2,1,2.2,2.2C193.8,145,192.8,146,191.6,146L191.6,146z"/>
	<path d="M170,160.7c-1.3,0-2.4-1.1-2.4-2.4s1.1-2.4,2.4-2.4h0c1.3,0,2.4,1.1,2.4,2.4S171.4,160.7,170,160.7L170,160.7z"/>
	<path d="M198.8,160.7c-1.3,0-2.4-1.1-2.4-2.4s1.1-2.4,2.4-2.4h0c1.3,0,2.4,1.1,2.4,2.4S200.2,160.7,198.8,160.7L198.8,160.7z"/>
	<path d="M180.8,174.1c-0.8,0-1.4-0.6-1.4-1.4c0-0.8,0.6-1.4,1.4-1.4h0c0.8,0,1.4,0.6,1.4,1.4C182.3,173.4,181.6,174.1,180.8,174.1
		L180.8,174.1z"/>
	<path d="M188,174.1c-0.8,0-1.4-0.6-1.4-1.4c0-0.8,0.6-1.4,1.4-1.4h0c0.8,0,1.4,0.6,1.4,1.4C189.5,173.4,188.8,174.1,188,174.1
		L188,174.1z"/>
	<path d="M11.6,207.2c-1.2,0-2.2-1-2.2-2.2c0-1.2,1-2.2,2.2-2.2h0c1.2,0,2.2,1,2.2,2.2C13.8,206.2,12.8,207.2,11.6,207.2L11.6,207.2
		z"/>
	<path d="M29.6,200c-1.2,0-2.2-1-2.2-2.2c0-1.2,1-2.2,2.2-2.2h0c1.2,0,2.2,1,2.2,2.2C31.8,199,30.8,200,29.6,200L29.6,200z"/>
	<path d="M8,214.7c-1.3,0-2.4-1.1-2.4-2.4c0-1.3,1.1-2.4,2.4-2.4h0c1.3,0,2.4,1.1,2.4,2.4C10.4,213.6,9.4,214.7,8,214.7L8,214.7z"/>
	<path d="M36.8,214.7c-1.3,0-2.4-1.1-2.4-2.4c0-1.3,1.1-2.4,2.4-2.4h0c1.3,0,2.4,1.1,2.4,2.4C39.2,213.6,38.2,214.7,36.8,214.7
		L36.8,214.7z"/>
	<path d="M18.8,228.1c-0.8,0-1.4-0.6-1.4-1.4c0-0.8,0.6-1.4,1.4-1.4h0c0.8,0,1.4,0.6,1.4,1.4C20.3,227.4,19.6,228.1,18.8,228.1
		L18.8,228.1z"/>
	<path d="M26,228.1c-0.8,0-1.4-0.6-1.4-1.4c0-0.8,0.6-1.4,1.4-1.4h0c0.8,0,1.4,0.6,1.4,1.4C27.5,227.4,26.8,228.1,26,228.1L26,228.1
		z"/>
	<path d="M65.6,207.2c-1.2,0-2.2-1-2.2-2.2c0-1.2,1-2.2,2.2-2.2h0c1.2,0,2.2,1,2.2,2.2C67.8,206.2,66.8,207.2,65.6,207.2L65.6,207.2
		z"/>
	<path d="M83.6,200c-1.2,0-2.2-1-2.2-2.2c0-1.2,1-2.2,2.2-2.2h0c1.2,0,2.2,1,2.2,2.2C85.8,199,84.8,200,83.6,200L83.6,200z"/>
	<path d="M62,214.7c-1.3,0-2.4-1.1-2.4-2.4c0-1.3,1.1-2.4,2.4-2.4h0c1.3,0,2.4,1.1,2.4,2.4C64.4,213.6,63.4,214.7,62,214.7L62,214.7
		z"/>
	<path d="M90.8,214.7c-1.3,0-2.4-1.1-2.4-2.4c0-1.3,1.1-2.4,2.4-2.4h0c1.3,0,2.4,1.1,2.4,2.4C93.2,213.6,92.2,214.7,90.8,214.7
		L90.8,214.7z"/>
	<path d="M72.8,228.1c-0.8,0-1.4-0.6-1.4-1.4c0-0.8,0.6-1.4,1.4-1.4h0c0.8,0,1.4,0.6,1.4,1.4C74.3,227.4,73.6,228.1,72.8,228.1
		L72.8,228.1z"/>
	<path d="M80,228.1c-0.8,0-1.4-0.6-1.4-1.4c0-0.8,0.6-1.4,1.4-1.4h0c0.8,0,1.4,0.6,1.4,1.4C81.5,227.4,80.8,228.1,80,228.1L80,228.1
		z"/>
	<path d="M119.6,207.2c-1.2,0-2.2-1-2.2-2.2c0-1.2,1-2.2,2.2-2.2h0c1.2,0,2.2,1,2.2,2.2C121.8,206.2,120.8,207.2,119.6,207.2
		L119.6,207.2z"/>
	<path d="M137.6,200c-1.2,0-2.2-1-2.2-2.2c0-1.2,1-2.2,2.2-2.2h0c1.2,0,2.2,1,2.2,2.2C139.8,199,138.8,200,137.6,200L137.6,200z"/>
	<path d="M116,214.7c-1.3,0-2.4-1.1-2.4-2.4c0-1.3,1.1-2.4,2.4-2.4h0c1.3,0,2.4,1.1,2.4,2.4C118.4,213.6,117.4,214.7,116,214.7
		L116,214.7z"/>
	<path d="M144.8,214.7c-1.3,0-2.4-1.1-2.4-2.4c0-1.3,1.1-2.4,2.4-2.4h0c1.3,0,2.4,1.1,2.4,2.4C147.2,213.6,146.2,214.7,144.8,214.7
		L144.8,214.7z"/>
	<path d="M126.8,228.1c-0.8,0-1.4-0.6-1.4-1.4c0-0.8,0.6-1.4,1.4-1.4h0c0.8,0,1.4,0.6,1.4,1.4C128.3,227.4,127.6,228.1,126.8,228.1
		L126.8,228.1z"/>
	<path d="M134,228.1c-0.8,0-1.4-0.6-1.4-1.4c0-0.8,0.6-1.4,1.4-1.4h0c0.8,0,1.4,0.6,1.4,1.4C135.5,227.4,134.8,228.1,134,228.1
		L134,228.1z"/>
	<path d="M173.6,207.2c-1.2,0-2.2-1-2.2-2.2c0-1.2,1-2.2,2.2-2.2h0c1.2,0,2.2,1,2.2,2.2C175.8,206.2,174.8,207.2,173.6,207.2
		L173.6,207.2z"/>
	<path d="M191.6,200c-1.2,0-2.2-1-2.2-2.2c0-1.2,1-2.2,2.2-2.2h0c1.2,0,2.2,1,2.2,2.2C193.8,199,192.8,200,191.6,200L191.6,200z"/>
	<path d="M170,214.7c-1.3,0-2.4-1.1-2.4-2.4c0-1.3,1.1-2.4,2.4-2.4h0c1.3,0,2.4,1.1,2.4,2.4C172.4,213.6,171.4,214.7,170,214.7
		L170,214.7z"/>
	<path d="M198.8,214.7c-1.3,0-2.4-1.1-2.4-2.4c0-1.3,1.1-2.4,2.4-2.4h0c1.3,0,2.4,1.1,2.4,2.4C201.2,213.6,200.2,214.7,198.8,214.7
		L198.8,214.7z"/>
	<path d="M180.8,228.1c-0.8,0-1.4-0.6-1.4-1.4c0-0.8,0.6-1.4,1.4-1.4h0c0.8,0,1.4,0.6,1.4,1.4C182.3,227.4,181.6,228.1,180.8,228.1
		L180.8,228.1z"/>
	<path d="M188,228.1c-0.8,0-1.4-0.6-1.4-1.4c0-0.8,0.6-1.4,1.4-1.4h0c0.8,0,1.4,0.6,1.4,1.4C189.5,227.4,188.8,228.1,188,228.1
		L188,228.1z"/>
	<circle cx="168.9" cy="77.2" r="1"/>
	<circle cx="172.6" cy="77.2" r="1"/>
	<circle cx="176.3" cy="77.2" r="1"/>
	<circle cx="179.9" cy="77.2" r="1"/>
	<circle cx="134.9" cy="77.2" r="1"/>
	<circle cx="138.6" cy="77.2" r="1"/>
	<circle cx="142.2" cy="77.2" r="1"/>
	<circle cx="145.9" cy="77.2" r="1"/>
	<circle cx="101.3" cy="147.8" r="0.4"/>
	<circle cx="169.6" cy="83" r="0.4"/>
	<circle cx="174.1" cy="88.5" r="0.4"/>
	<circle cx="184.8" cy="94.3" r="0.4"/>
	<circle cx="101.1" cy="140.7" r="0.4"/>
	<circle cx="118.3" cy="109.4" r="0.4"/>
	<circle cx="174.7" cy="109.4" r="0.4"/>
	<circle cx="165.3" cy="194.2" r="0.4"/>
	<circle cx="170.9" cy="124.3" r="0.4"/>
	<circle cx="162.9" cy="124.6" r="0.4"/>
	<circle cx="153.4" cy="151.1" r="0.4"/>
	<circle cx="151.7" cy="132.6" r="0.4"/>
	<circle cx="133.5" cy="84" r="0.4"/>
	<circle cx="135.6" cy="95.1" r="0.4"/>
	<circle cx="176.7" cy="105.6" r="0.4"/>
	<circle cx="22.4" cy="77.2" r="5.8"/>
	<circle cx="76.4" cy="77.2" r="5.8"/>
	<circle cx="22.4" cy="158.3" r="5.8"/>
	<circle cx="76.4" cy="158.3" r="5.8"/>
	<circle cx="130.4" cy="158.3" r="5.8"/>
	<circle cx="184.4" cy="158.3" r="5.8"/>
	<circle cx="22.4" cy="212.3" r="5.8"/>
	<circle cx="76.4" cy="212.3" r="5.8"/>
	<circle cx="130.4" cy="212.3" r="5.8"/>
	<circle cx="184.4" cy="212.3" r="5.8"/>
</g>
</svg>
