  0
SECTION
  2
HEADER
  9
$ACADVER
  1
AC1009
  9
$EXTMIN
 10
0.0
 20
0.0
 30
0.0
  9
$EXTMAX
 10
1000.0
 20
1000.0
 30
0.0
  9
$FILLMODE
 70
 0
  9
$SPLFRAME
 70
 1
  0
ENDSEC
  0
SECTION
  2
TABLES
  0
TABLE
  2
LAYER
 70
1
  0
LAYER
  2
0
 70
     0
 62
     7
  6
CONTINUOUS
  0
ENDTAB
  0
ENDSEC
  0
SECTION
  2
ENTITIES
  0
LINE
  8
0
 62
     0
 10
83.2968
 20
76.8103
 30
0.0
 11
83.5311
 21
76.8008
 31
0.0
  0
LINE
  8
0
 62
     0
 10
83.5311
 20
76.8008
 30
0.0
 11
83.7653
 21
76.7747
 31
0.0
  0
LINE
  8
0
 62
     0
 10
83.7653
 20
76.7747
 30
0.0
 11
83.9971
 21
76.7278
 31
0.0
  0
LINE
  8
0
 62
     0
 10
83.9971
 20
76.7278
 30
0.0
 11
84.2229
 21
76.6643
 31
0.0
  0
LINE
  8
0
 62
     0
 10
84.2229
 20
76.6643
 30
0.0
 11
84.4448
 21
76.5817
 31
0.0
  0
LINE
  8
0
 62
     0
 10
84.4448
 20
76.5817
 30
0.0
 11
84.6571
 21
76.484
 31
0.0
  0
LINE
  8
0
 62
     0
 10
84.6571
 20
76.484
 30
0.0
 11
84.8639
 21
76.3683
 31
0.0
  0
LINE
  8
0
 62
     0
 10
84.8639
 20
76.3683
 30
0.0
 11
85.0593
 21
76.2385
 31
0.0
  0
LINE
  8
0
 62
     0
 10
85.0593
 20
76.2385
 30
0.0
 11
85.2442
 21
76.0924
 31
0.0
  0
LINE
  8
0
 62
     0
 10
85.2442
 20
76.0924
 30
0.0
 11
85.4177
 21
75.9326
 31
0.0
  0
LINE
  8
0
 62
     0
 10
85.4177
 20
75.9326
 30
0.0
 11
85.5775
 21
75.759
 31
0.0
  0
LINE
  8
0
 62
     0
 10
85.5775
 20
75.759
 30
0.0
 11
85.7236
 21
75.5745
 31
0.0
  0
LINE
  8
0
 62
     0
 10
85.7236
 20
75.5745
 30
0.0
 11
85.8531
 21
75.3787
 31
0.0
  0
LINE
  8
0
 62
     0
 10
85.8531
 20
75.3787
 30
0.0
 11
85.9688
 21
75.172
 31
0.0
  0
LINE
  8
0
 62
     0
 10
85.9688
 20
75.172
 30
0.0
 11
86.0683
 21
74.9582
 31
0.0
  0
LINE
  8
0
 62
     0
 10
86.0683
 20
74.9582
 30
0.0
 11
86.1494
 21
74.7377
 31
0.0
  0
LINE
  8
0
 62
     0
 10
86.1494
 20
74.7377
 30
0.0
 11
86.2129
 21
74.5105
 31
0.0
  0
LINE
  8
0
 62
     0
 10
86.2129
 20
74.5105
 30
0.0
 11
86.2598
 21
74.2805
 31
0.0
  0
LINE
  8
0
 62
     0
 10
86.2598
 20
74.2805
 30
0.0
 11
86.2859
 21
74.0463
 31
0.0
  0
LINE
  8
0
 62
     0
 10
86.2859
 20
74.0463
 30
0.0
 11
86.2969
 21
73.8106
 31
0.0
  0
LINE
  8
0
 62
     0
 10
86.2969
 20
73.8106
 30
0.0
 11
86.2969
 21
3.13366
 31
0.0
  0
LINE
  8
0
 62
     0
 10
86.2969
 20
3.13366
 30
0.0
 11
86.2859
 21
2.89939
 31
0.0
  0
LINE
  8
0
 62
     0
 10
86.2859
 20
2.89939
 30
0.0
 11
86.2598
 21
2.66513
 31
0.0
  0
LINE
  8
0
 62
     0
 10
86.2598
 20
2.66513
 30
0.0
 11
86.2129
 21
2.43362
 31
0.0
  0
LINE
  8
0
 62
     0
 10
86.2129
 20
2.43362
 30
0.0
 11
86.1494
 21
2.20762
 31
0.0
  0
LINE
  8
0
 62
     0
 10
86.1494
 20
2.20762
 30
0.0
 11
86.0683
 21
1.98575
 31
0.0
  0
LINE
  8
0
 62
     0
 10
86.0683
 20
1.98575
 30
0.0
 11
85.9688
 21
1.77353
 31
0.0
  0
LINE
  8
0
 62
     0
 10
85.9688
 20
1.77353
 30
0.0
 11
85.8531
 21
1.56683
 31
0.0
  0
LINE
  8
0
 62
     0
 10
85.8531
 20
1.56683
 30
0.0
 11
85.7236
 21
1.37115
 31
0.0
  0
LINE
  8
0
 62
     0
 10
85.7236
 20
1.37115
 30
0.0
 11
85.5775
 21
1.18649
 31
0.0
  0
LINE
  8
0
 62
     0
 10
85.5775
 20
1.18649
 30
0.0
 11
85.4177
 21
1.01286
 31
0.0
  0
LINE
  8
0
 62
     0
 10
85.4177
 20
1.01286
 30
0.0
 11
85.2442
 21
0.853006
 31
0.0
  0
LINE
  8
0
 62
     0
 10
85.2442
 20
0.853006
 30
0.0
 11
85.0593
 21
0.706935
 31
0.0
  0
LINE
  8
0
 62
     0
 10
85.0593
 20
0.706935
 30
0.0
 11
84.8639
 21
0.577398
 31
0.0
  0
LINE
  8
0
 62
     0
 10
84.8639
 20
0.577398
 30
0.0
 11
84.6571
 21
0.461641
 31
0.0
  0
LINE
  8
0
 62
     0
 10
84.6571
 20
0.461641
 30
0.0
 11
84.4448
 21
0.362423
 31
0.0
  0
LINE
  8
0
 62
     0
 10
84.4448
 20
0.362423
 30
0.0
 11
84.2229
 21
0.28112
 31
0.0
  0
LINE
  8
0
 62
     0
 10
84.2229
 20
0.28112
 30
0.0
 11
83.9971
 21
0.21773
 31
0.0
  0
LINE
  8
0
 62
     0
 10
83.9971
 20
0.21773
 30
0.0
 11
83.7653
 21
0.170877
 31
0.0
  0
LINE
  8
0
 62
     0
 10
83.7653
 20
0.170877
 30
0.0
 11
83.5311
 21
0.144694
 31
0.0
  0
LINE
  8
0
 62
     0
 10
83.5311
 20
0.144694
 30
0.0
 11
83.2954
 21
0.13367
 31
0.0
  0
LINE
  8
0
 62
     0
 10
83.2954
 20
0.13367
 30
0.0
 11
3.09507
 21
0.13367
 31
0.0
  0
LINE
  8
0
 62
     0
 10
3.09507
 20
0.13367
 30
0.0
 11
2.85943
 21
0.144694
 31
0.0
  0
LINE
  8
0
 62
     0
 10
2.85943
 20
0.144694
 30
0.0
 11
2.62516
 21
0.170877
 31
0.0
  0
LINE
  8
0
 62
     0
 10
2.62516
 20
0.170877
 30
0.0
 11
2.39503
 21
0.21773
 31
0.0
  0
LINE
  8
0
 62
     0
 10
2.39503
 20
0.21773
 30
0.0
 11
2.16765
 21
0.28112
 31
0.0
  0
LINE
  8
0
 62
     0
 10
2.16765
 20
0.28112
 30
0.0
 11
1.94717
 21
0.362423
 31
0.0
  0
LINE
  8
0
 62
     0
 10
1.94717
 20
0.362423
 30
0.0
 11
1.73357
 21
0.461641
 31
0.0
  0
LINE
  8
0
 62
     0
 10
1.73357
 20
0.461641
 30
0.0
 11
1.52687
 21
0.577398
 31
0.0
  0
LINE
  8
0
 62
     0
 10
1.52687
 20
0.577398
 30
0.0
 11
1.33119
 21
0.706935
 31
0.0
  0
LINE
  8
0
 62
     0
 10
1.33119
 20
0.706935
 30
0.0
 11
1.14653
 21
0.853006
 31
0.0
  0
LINE
  8
0
 62
     0
 10
1.14653
 20
0.853006
 30
0.0
 11
0.972894
 21
1.01286
 31
0.0
  0
LINE
  8
0
 62
     0
 10
0.972894
 20
1.01286
 30
0.0
 11
0.813043
 21
1.18649
 31
0.0
  0
LINE
  8
0
 62
     0
 10
0.813043
 20
1.18649
 30
0.0
 11
0.666972
 21
1.37115
 31
0.0
  0
LINE
  8
0
 62
     0
 10
0.666972
 20
1.37115
 30
0.0
 11
0.537436
 21
1.56683
 31
0.0
  0
LINE
  8
0
 62
     0
 10
0.537436
 20
1.56683
 30
0.0
 11
0.421679
 21
1.77353
 31
0.0
  0
LINE
  8
0
 62
     0
 10
0.421679
 20
1.77353
 30
0.0
 11
0.323839
 21
1.98575
 31
0.0
  0
LINE
  8
0
 62
     0
 10
0.323839
 20
1.98575
 30
0.0
 11
0.241157
 21
2.20762
 31
0.0
  0
LINE
  8
0
 62
     0
 10
0.241157
 20
2.20762
 30
0.0
 11
0.177767
 21
2.43362
 31
0.0
  0
LINE
  8
0
 62
     0
 10
0.177767
 20
2.43362
 30
0.0
 11
0.130914
 21
2.66513
 31
0.0
  0
LINE
  8
0
 62
     0
 10
0.130914
 20
2.66513
 30
0.0
 11
0.104731
 21
2.89939
 31
0.0
  0
LINE
  8
0
 62
     0
 10
0.104731
 20
2.89939
 30
0.0
 11
0.0950846
 21
3.13504
 31
0.0
  0
LINE
  8
0
 62
     0
 10
0.0950846
 20
3.13504
 30
0.0
 11
0.0950846
 21
73.8106
 31
0.0
  0
LINE
  8
0
 62
     0
 10
0.0950846
 20
73.8106
 30
0.0
 11
0.104731
 21
74.0463
 31
0.0
  0
LINE
  8
0
 62
     0
 10
0.104731
 20
74.0463
 30
0.0
 11
0.130914
 21
74.2805
 31
0.0
  0
LINE
  8
0
 62
     0
 10
0.130914
 20
74.2805
 30
0.0
 11
0.177767
 21
74.5105
 31
0.0
  0
LINE
  8
0
 62
     0
 10
0.177767
 20
74.5105
 30
0.0
 11
0.241157
 21
74.7377
 31
0.0
  0
LINE
  8
0
 62
     0
 10
0.241157
 20
74.7377
 30
0.0
 11
0.323839
 21
74.9582
 31
0.0
  0
LINE
  8
0
 62
     0
 10
0.323839
 20
74.9582
 30
0.0
 11
0.421679
 21
75.172
 31
0.0
  0
LINE
  8
0
 62
     0
 10
0.421679
 20
75.172
 30
0.0
 11
0.537436
 21
75.3787
 31
0.0
  0
LINE
  8
0
 62
     0
 10
0.537436
 20
75.3787
 30
0.0
 11
0.666972
 21
75.5745
 31
0.0
  0
LINE
  8
0
 62
     0
 10
0.666972
 20
75.5745
 30
0.0
 11
0.813043
 21
75.759
 31
0.0
  0
LINE
  8
0
 62
     0
 10
0.813043
 20
75.759
 30
0.0
 11
0.972894
 21
75.9326
 31
0.0
  0
LINE
  8
0
 62
     0
 10
0.972894
 20
75.9326
 30
0.0
 11
1.14653
 21
76.0924
 31
0.0
  0
LINE
  8
0
 62
     0
 10
1.14653
 20
76.0924
 30
0.0
 11
1.33119
 21
76.2385
 31
0.0
  0
LINE
  8
0
 62
     0
 10
1.33119
 20
76.2385
 30
0.0
 11
1.52687
 21
76.3683
 31
0.0
  0
LINE
  8
0
 62
     0
 10
1.52687
 20
76.3683
 30
0.0
 11
1.73357
 21
76.484
 31
0.0
  0
LINE
  8
0
 62
     0
 10
1.73357
 20
76.484
 30
0.0
 11
1.94717
 21
76.5817
 31
0.0
  0
LINE
  8
0
 62
     0
 10
1.94717
 20
76.5817
 30
0.0
 11
2.16765
 21
76.6643
 31
0.0
  0
LINE
  8
0
 62
     0
 10
2.16765
 20
76.6643
 30
0.0
 11
2.39503
 21
76.7278
 31
0.0
  0
LINE
  8
0
 62
     0
 10
2.39503
 20
76.7278
 30
0.0
 11
2.62516
 21
76.7747
 31
0.0
  0
LINE
  8
0
 62
     0
 10
2.62516
 20
76.7747
 30
0.0
 11
2.85943
 21
76.8008
 31
0.0
  0
LINE
  8
0
 62
     0
 10
2.85943
 20
76.8008
 30
0.0
 11
3.09507
 21
76.8103
 31
0.0
  0
LINE
  8
0
 62
     0
 10
3.09507
 20
76.8103
 30
0.0
 11
83.2968
 21
76.8103
 31
0.0
  0
LINE
  8
0
 62
     0
 10
64.7707
 20
21.66
 30
0.0
 11
78.77
 21
21.66
 31
0.0
  0
LINE
  8
0
 62
     0
 10
78.77
 20
21.66
 30
0.0
 11
78.77
 21
7.6605
 31
0.0
  0
LINE
  8
0
 62
     0
 10
78.77
 20
7.6605
 30
0.0
 11
64.7707
 21
7.6605
 31
0.0
  0
LINE
  8
0
 62
     0
 10
64.7707
 20
7.6605
 30
0.0
 11
64.7707
 21
21.66
 31
0.0
  0
LINE
  8
0
 62
     0
 10
45.7207
 20
21.66
 30
0.0
 11
59.72
 21
21.66
 31
0.0
  0
LINE
  8
0
 62
     0
 10
59.72
 20
21.66
 30
0.0
 11
59.72
 21
7.6605
 31
0.0
  0
LINE
  8
0
 62
     0
 10
59.72
 20
7.6605
 30
0.0
 11
45.7207
 21
7.6605
 31
0.0
  0
LINE
  8
0
 62
     0
 10
45.7207
 20
7.6605
 30
0.0
 11
45.7207
 21
21.66
 31
0.0
  0
LINE
  8
0
 62
     0
 10
26.6706
 20
21.66
 30
0.0
 11
40.67
 21
21.66
 31
0.0
  0
LINE
  8
0
 62
     0
 10
40.67
 20
21.66
 30
0.0
 11
40.67
 21
7.6605
 31
0.0
  0
LINE
  8
0
 62
     0
 10
40.67
 20
7.6605
 30
0.0
 11
26.6706
 21
7.6605
 31
0.0
  0
LINE
  8
0
 62
     0
 10
26.6706
 20
7.6605
 30
0.0
 11
26.6706
 21
21.66
 31
0.0
  0
LINE
  8
0
 62
     0
 10
7.61919
 20
21.66
 30
0.0
 11
21.6201
 21
21.66
 31
0.0
  0
LINE
  8
0
 62
     0
 10
21.6201
 20
21.66
 30
0.0
 11
21.6201
 21
7.6605
 31
0.0
  0
LINE
  8
0
 62
     0
 10
21.6201
 20
7.6605
 30
0.0
 11
7.61919
 21
7.6605
 31
0.0
  0
LINE
  8
0
 62
     0
 10
7.61919
 20
7.6605
 30
0.0
 11
7.61919
 21
21.66
 31
0.0
  0
LINE
  8
0
 62
     0
 10
64.7707
 20
40.7099
 30
0.0
 11
78.77
 21
40.7099
 31
0.0
  0
LINE
  8
0
 62
     0
 10
78.77
 20
40.7099
 30
0.0
 11
78.77
 21
26.7105
 31
0.0
  0
LINE
  8
0
 62
     0
 10
78.77
 20
26.7105
 30
0.0
 11
64.7707
 21
26.7105
 31
0.0
  0
LINE
  8
0
 62
     0
 10
64.7707
 20
26.7105
 30
0.0
 11
64.7707
 21
40.7099
 31
0.0
  0
LINE
  8
0
 62
     0
 10
45.7207
 20
40.7099
 30
0.0
 11
59.72
 21
40.7099
 31
0.0
  0
LINE
  8
0
 62
     0
 10
59.72
 20
40.7099
 30
0.0
 11
59.72
 21
26.7105
 31
0.0
  0
LINE
  8
0
 62
     0
 10
59.72
 20
26.7105
 30
0.0
 11
45.7207
 21
26.7105
 31
0.0
  0
LINE
  8
0
 62
     0
 10
45.7207
 20
26.7105
 30
0.0
 11
45.7207
 21
40.7099
 31
0.0
  0
LINE
  8
0
 62
     0
 10
26.6706
 20
40.7099
 30
0.0
 11
40.67
 21
40.7099
 31
0.0
  0
LINE
  8
0
 62
     0
 10
40.67
 20
40.7099
 30
0.0
 11
40.67
 21
26.7105
 31
0.0
  0
LINE
  8
0
 62
     0
 10
40.67
 20
26.7105
 30
0.0
 11
26.6706
 21
26.7105
 31
0.0
  0
LINE
  8
0
 62
     0
 10
26.6706
 20
26.7105
 30
0.0
 11
26.6706
 21
40.7099
 31
0.0
  0
LINE
  8
0
 62
     0
 10
7.61919
 20
40.7099
 30
0.0
 11
21.6201
 21
40.7099
 31
0.0
  0
LINE
  8
0
 62
     0
 10
21.6201
 20
40.7099
 30
0.0
 11
21.6201
 21
26.7105
 31
0.0
  0
LINE
  8
0
 62
     0
 10
21.6201
 20
26.7105
 30
0.0
 11
7.61919
 21
26.7105
 31
0.0
  0
LINE
  8
0
 62
     0
 10
7.61919
 20
26.7105
 30
0.0
 11
7.61919
 21
40.7099
 31
0.0
  0
LINE
  8
0
 62
     0
 10
26.6706
 20
69.2863
 30
0.0
 11
40.67
 21
69.2863
 31
0.0
  0
LINE
  8
0
 62
     0
 10
40.67
 20
69.2863
 30
0.0
 11
40.67
 21
55.2856
 31
0.0
  0
LINE
  8
0
 62
     0
 10
40.67
 20
55.2856
 30
0.0
 11
26.6706
 21
55.2856
 31
0.0
  0
LINE
  8
0
 62
     0
 10
26.6706
 20
55.2856
 30
0.0
 11
26.6706
 21
69.2863
 31
0.0
  0
LINE
  8
0
 62
     0
 10
7.61919
 20
69.2863
 30
0.0
 11
21.6201
 21
69.2863
 31
0.0
  0
LINE
  8
0
 62
     0
 10
21.6201
 20
69.2863
 30
0.0
 11
21.6201
 21
55.2856
 31
0.0
  0
LINE
  8
0
 62
     0
 10
21.6201
 20
55.2856
 30
0.0
 11
7.61919
 21
55.2856
 31
0.0
  0
LINE
  8
0
 62
     0
 10
7.61919
 20
55.2856
 30
0.0
 11
7.61919
 21
69.2863
 31
0.0
  0
ENDSEC
  0
EOF
