<?xml version="1.0"?>
<!-- Generated by SVGo -->
<svg width="96.202mm" height="86.677mm"
     viewBox="0.000 0.000 96.202 86.677"
     xmlns="http://www.w3.org/2000/svg" 
     xmlns:xlink="http://www.w3.org/1999/xlink">
<polygon points="88.202,5.001 88.437,5.010 88.671,5.037 88.902,5.083 89.129,5.147 89.350,5.229 89.563,5.327 89.769,5.443 89.965,5.573 90.150,5.719 90.323,5.879 90.483,6.052 90.629,6.237 90.759,6.433 90.875,6.639 90.973,6.852 91.055,7.073 91.119,7.300 91.165,7.531 91.192,7.765 91.202,8.001 91.202,78.677 91.192,78.912 91.165,79.146 91.119,79.377 91.055,79.604 90.973,79.825 90.875,80.038 90.759,80.244 90.629,80.440 90.483,80.625 90.323,80.798 90.150,80.958 89.965,81.104 89.769,81.234 89.563,81.350 89.350,81.448 89.129,81.530 88.902,81.594 88.671,81.640 88.437,81.667 88.201,81.677 8.001,81.677 7.765,81.667 7.531,81.640 7.300,81.594 7.073,81.530 6.852,81.448 6.639,81.350 6.433,81.234 6.237,81.104 6.052,80.958 5.879,80.798 5.719,80.625 5.573,80.440 5.443,80.244 5.327,80.038 5.229,79.825 5.147,79.604 5.083,79.377 5.037,79.146 5.010,78.912 5.000,78.676 5.001,8.001 5.010,7.765 5.037,7.531 5.083,7.300 5.147,7.073 5.229,6.852 5.327,6.639 5.443,6.433 5.573,6.237 5.719,6.052 5.879,5.879 6.052,5.719 6.237,5.573 6.433,5.443 6.639,5.327 6.852,5.229 7.073,5.147 7.300,5.083 7.531,5.037 7.765,5.010 8.001,5.000" style="fill:none;stroke-width:0.050000mm;stroke:black"/>
<polygon points="69.676,60.151 69.676,74.151 83.676,74.151 83.676,60.151" style="fill:none;stroke-width:0.050000mm;stroke:black"/>
<polygon points="50.626,60.151 50.626,74.151 64.626,74.151 64.626,60.151" style="fill:none;stroke-width:0.050000mm;stroke:black"/>
<polygon points="31.576,60.151 31.576,74.151 45.576,74.151 45.576,60.151" style="fill:none;stroke-width:0.050000mm;stroke:black"/>
<polygon points="12.525,60.151 12.525,74.151 26.526,74.151 26.526,60.151" style="fill:none;stroke-width:0.050000mm;stroke:black"/>
<polygon points="69.676,41.101 69.676,55.101 83.676,55.101 83.676,41.101" style="fill:none;stroke-width:0.050000mm;stroke:black"/>
<polygon points="50.626,41.101 50.626,55.101 64.626,55.101 64.626,41.101" style="fill:none;stroke-width:0.050000mm;stroke:black"/>
<polygon points="31.576,41.101 31.576,55.101 45.576,55.101 45.576,41.101" style="fill:none;stroke-width:0.050000mm;stroke:black"/>
<polygon points="12.525,41.101 12.525,55.101 26.526,55.101 26.526,41.101" style="fill:none;stroke-width:0.050000mm;stroke:black"/>
<polygon points="31.576,12.525 31.576,26.526 45.576,26.526 45.576,12.525" style="fill:none;stroke-width:0.050000mm;stroke:black"/>
<polygon points="12.525,12.525 12.525,26.526 26.526,26.526 26.526,12.525" style="fill:none;stroke-width:0.050000mm;stroke:black"/>
</svg>
